SplineFontDB: 3.2
FontName: NewCMUncial08-Bold
FullName: NewCMUncial08-Bold
FamilyName: NewCMUncial08
Weight: Bold
Copyright: Copyright (c) 2021, Antonis Tsolomitis
Version: 4.1
ItalicAngle: 0
UnderlinePosition: -100
UnderlineWidth: 50
Ascent: 750
Descent: 250
InvalidEm: 0
LayerCount: 2
Layer: 0 0 "Back" 1
Layer: 1 0 "Fore" 0
UniqueID: 4219135
StyleMap: 0x0000
FSType: 0
OS2Version: 0
OS2_WeightWidthSlopeOnly: 0
OS2_UseTypoMetrics: 0
CreationTime: 1637078227
ModificationTime: 1637128256
OS2TypoAscent: 0
OS2TypoAOffset: 1
OS2TypoDescent: 0
OS2TypoDOffset: 1
OS2TypoLinegap: 90
OS2WinAscent: 0
OS2WinAOffset: 1
OS2WinDescent: 0
OS2WinDOffset: 1
HheadAscent: 0
HheadAOffset: 1
HheadDescent: 0
HheadDOffset: 1
Lookup: 1 0 0 "'salt' Stylistic Alternatives lookup 0" { "'salt' Stylistic Alternatives lookup 0-1"  } ['salt' ('DFLT' <'dflt' > 'grek' <'dflt' > 'latn' <'dflt' > ) ]
MarkAttachClasses: 1
DEI: 91125
Encoding: UnicodeFull
UnicodeInterp: none
NameList: AGL For New Fonts
DisplaySize: -72
AntiAlias: 1
FitToEm: 0
WinInfo: 0 8 5
BeginPrivate: 8
BlueValues 63 [-74.000 0.000 430.000 448.000 665.000 667.000 677.000 705.000]
BlueScale 12 0.0135135135
StdHW 8 [31.000]
StdVW 8 [89.000]
StemSnapH 15 [22.000 31.000]
StemSnapV 15 [28.000 89.000]
ForceBoldThreshold 2 .5
ForceBold 4 true
EndPrivate
BeginChars: 1114119 169

StartChar: exclam
Encoding: 33 33 0
Width: 371
Flags: MW
HStem: 0 156
VStem: 96 158
LayerCount: 2
Fore
SplineSet
270 618 m 1
 215 248 l 2
 212 227 207 224 185 224 c 0
 161 224 160 228 156 252 c 2
 101 613 l 2
 99 624 99 626 99 632 c 0
 99 672 139 705 185 705 c 0
 232 705 272 672 272 631 c 1
 270 618 l 1
185 0 m 0
 138 0 100 36 100 80 c 0
 100 125 138 161 185 161 c 0
 233 161 271 125 271 80 c 0
 271 36 233 0 185 0 c 0
EndSplineSet
EndChar

StartChar: quotedbl
Encoding: 34 34 1
Width: 510
Flags: MW
HStem: 418 21G<141 198 141 141 313 370 313 313> 677 20G<151 226.5 322.5 397.5>
LayerCount: 2
Fore
SplineSet
370 418 m 1
 313 418 l 1
 278 638 l 2
 272 670 304 697 341 697 c 0
 454 697 388 532 370 418 c 1
198 418 m 1
 141 418 l 1
 106 638 l 2
 101 670 132 697 170 697 c 0
 283 697 216 532 198 418 c 1
EndSplineSet
EndChar

StartChar: numbersign
Encoding: 35 35 2
Width: 1015
Flags: MW
HStem: -194 21G<225 248.5 497 520.5> 108 61 332 61 674 20G<495 518 766.5 789>
VStem: 64 829
LayerCount: 2
Fore
SplineSet
898 106 m 2
 632 106 l 1
 543 -164 l 2
 539 -176 533 -194 508 -194 c 0
 486 -194 472 -178 472 -161 c 0
 472 -154 474 -148 476 -140 c 2
 557 106 l 1
 361 106 l 1
 271 -164 l 2
 267 -176 261 -194 236 -194 c 0
 214 -194 200 -178 200 -161 c 0
 200 -154 202 -148 205 -140 c 2
 286 106 l 1
 117 106 l 2
 100 106 65 107 65 140 c 0
 65 172 98 173 111 173 c 2
 309 173 l 1
 359 328 l 1
 111 328 l 2
 98 328 65 329 65 361 c 0
 65 394 100 395 117 395 c 2
 382 395 l 1
 471 662 l 2
 476 679 483 694 507 694 c 0
 529 694 543 678 543 661 c 0
 543 654 542 653 538 640 c 2
 457 395 l 1
 654 395 l 1
 742 662 l 2
 748 679 755 694 778 694 c 0
 800 694 814 678 814 661 c 0
 814 654 814 653 810 640 c 2
 728 395 l 1
 898 395 l 2
 915 395 950 394 950 361 c 0
 950 329 917 328 903 328 c 2
 705 328 l 1
 655 173 l 1
 903 173 l 2
 917 173 950 172 950 140 c 0
 950 107 915 106 898 106 c 2
434 328 m 1
 384 173 l 1
 581 173 l 1
 631 328 l 1
 434 328 l 1
EndSplineSet
EndChar

StartChar: dollar
Encoding: 36 36 3
Width: 609
Flags: MW
HStem: -56 21G<277 333 277 277> -6 48 127 125 456 125 652 45 730 20G<277 333 333 333>
VStem: 64 125 264 47 385 125
LayerCount: 2
Fore
SplineSet
333 -5 m 1
 333 -56 l 1
 277 -56 l 1
 277 -5 l 1
 114 7 65 108 65 186 c 0
 65 253 126 256 135 256 c 0
 160 256 204 239 204 190 c 0
 204 166 190 128 135 126 c 1
 160 74 219 53 277 48 c 1
 277 291 l 1
 255 295 231 300 207 309 c 0
 181 319 154 333 128 357 c 0
 87 395 65 442 65 497 c 0
 65 584 120 687 277 699 c 1
 277 750 l 1
 333 750 l 1
 333 699 l 1
 488 689 544 602 544 521 c 0
 544 463 494 452 474 452 c 0
 445 452 405 471 405 518 c 0
 405 542 420 578 470 582 c 1
 442 627 384 642 333 646 c 1
 333 430 l 1
 387 420 432 406 473 368 c 0
 510 334 544 281 544 211 c 0
 544 118 490 10 333 -5 c 1
277 647 m 1
 196 640 156 595 156 545 c 0
 156 508 184 457 277 442 c 1
 277 647 l 1
333 280 m 1
 333 48 l 1
 412 56 453 105 453 163 c 0
 453 218 406 267 333 280 c 1
EndSplineSet
EndChar

StartChar: percent
Encoding: 37 37 4
Width: 1015
Flags: MW
HStem: -56 36 347 36 608 36 714 36
VStem: 64 103 191 47 336 47 574 103 846 47
LayerCount: 2
Fore
SplineSet
791 -56 m 0
 703 -56 605 2 605 147 c 0
 605 288 700 350 791 350 c 0
 867 350 950 294 950 146 c 0
 950 4 871 -56 791 -56 c 0
845 703 m 0
 842 698 839 694 836 691 c 2
 233 -39 l 2
 224 -49 218 -56 202 -56 c 0
 183 -56 166 -41 166 -22 c 0
 166 -11 179 4 179 4 c 1
 688 621 l 1
 639 605 594 603 573 603 c 0
 523 603 463 613 395 641 c 1
 409 597 409 564 409 547 c 0
 409 404 331 344 250 344 c 0
 163 344 65 402 65 548 c 0
 65 688 159 750 250 750 c 0
 286 750 312 739 335 724 c 0
 362 705 389 689 420 676 c 0
 460 659 511 645 572 645 c 0
 665 645 733 679 779 730 c 0
 788 741 796 750 813 750 c 0
 829 750 848 738 848 716 c 0
 848 711 847 707 845 703 c 0
793 308 m 0
 722 308 721 211 721 146 c 0
 721 83 722 -14 793 -14 c 0
 831 -14 894 18 894 147 c 0
 894 270 836 308 793 308 c 0
252 708 m 0
 181 708 180 611 180 547 c 0
 180 483 181 386 252 386 c 0
 290 386 353 418 353 548 c 0
 353 670 295 708 252 708 c 0
EndSplineSet
EndChar

StartChar: ampersand
Encoding: 38 38 5
Width: 967
Flags: W
LayerCount: 2
Fore
SplineSet
897 321 m 1
 875 332 864 337 855 340 c 0
 846 344 839 345 826 347 c 0
 713 363 621 286 606 190 c 0
 593 103 646 63 685 58 c 0
 714 55 743 63 805 141 c 1
 846 107 862 81 864 39 c 1
 781 -12 679 -22 590 10 c 1
 547 -11 495 -22 431 -22 c 0
 230 -22 56 136 56 342 c 0
 56 545 229 705 431 705 c 0
 537 705 722 673 722 527 c 0
 722 498 712 472 695 452 c 1
 835 433 l 2
 858 430 872 445 881 464 c 1
 952 448 l 1
 897 321 l 1
580 381 m 0
 559 383 541 384 537 381 c 0
 532 378 528 372 524 360 c 0
 520 347 515 328 507 297 c 1
 435 306 l 1
 479 480 l 1
 513 477 548 471 582 475 c 0
 607 478 617 485 617 503 c 0
 617 556 571 633 443 633 c 0
 389 633 207 606 207 341 c 0
 207 77 390 50 444 50 c 0
 470 50 494 54 514 59 c 1
 481 94 465 139 474 191 c 0
 491 297 549 342 617 376 c 1
 607 377 593 379 580 381 c 0
EndSplineSet
Substitution2: "'salt' Stylistic Alternatives lookup 0-1" ampersand.alt
EndChar

StartChar: quotesingle
Encoding: 39 39 6
Width: 338
Flags: MW
HStem: 418 21G<141 198 141 141> 677 20G<151 226.5>
VStem: 136 48
LayerCount: 2
Fore
SplineSet
198 418 m 1
 141 418 l 1
 106 638 l 2
 101 670 132 697 170 697 c 0
 283 697 216 532 198 418 c 1
EndSplineSet
EndChar

StartChar: parenleft
Encoding: 40 40 7
Width: 474
Flags: MW
HStem: -249 21G<375 390> 730 20G<376 390>
VStem: 108 97
LayerCount: 2
Fore
SplineSet
386 -249 m 0
 364 -249 266 -181 197 -67 c 0
 146 16 111 126 111 251 c 0
 111 357 135 541 302 695 c 0
 320 712 366 750 386 750 c 0
 394 750 408 747 408 733 c 0
 408 727 404 723 400 719 c 2
 390 710 l 1
 275 600 220 445 220 250 c 0
 220 163 233 72 261 -7 c 0
 305 -133 373 -193 404 -220 c 1
 404 -220 408 -226 408 -232 c 0
 408 -246 394 -249 386 -249 c 0
EndSplineSet
EndChar

StartChar: parenright
Encoding: 41 41 8
Width: 474
Flags: MW
HStem: -249 21G<82.5 97> 730 20G<82.5 98>
VStem: 241 97
LayerCount: 2
Fore
SplineSet
171 -194 m 0
 153 -211 107 -249 87 -249 c 0
 78 -249 65 -246 65 -232 c 0
 65 -226 69 -222 73 -218 c 2
 83 -209 l 1
 198 -99 252 56 252 251 c 0
 252 407 217 582 84 708 c 0
 67 724 65 727 65 733 c 0
 65 747 78 750 87 750 c 0
 109 750 207 682 276 568 c 0
 327 485 361 375 361 250 c 0
 361 144 337 -40 171 -194 c 0
EndSplineSet
EndChar

StartChar: asterisk
Encoding: 42 42 9
Width: 609
Flags: MW
HStem: 306 21G<295 313.5> 730 20G<295 313.5>
VStem: 242 89
LayerCount: 2
Fore
SplineSet
483 391 m 0
 477 391 467 392 453 402 c 2
 330 489 l 1
 342 420 l 2
 347 396 354 353 354 347 c 0
 354 317 323 306 304 306 c 0
 286 306 254 316 254 347 c 0
 254 353 255 355 258 371 c 2
 280 490 l 1
 156 402 l 2
 142 393 132 391 125 391 c 0
 102 391 75 411 75 441 c 0
 75 465 88 476 109 482 c 2
 250 528 l 1
 109 574 l 2
 88 580 75 591 75 615 c 0
 75 645 102 665 125 665 c 0
 132 665 142 663 156 654 c 2
 280 566 l 1
 258 685 l 2
 255 701 254 703 254 709 c 0
 254 739 286 750 304 750 c 0
 323 750 354 740 354 709 c 0
 354 703 354 701 351 685 c 2
 329 566 l 1
 453 654 l 2
 466 663 476 665 483 665 c 0
 506 665 533 645 533 615 c 0
 533 591 520 580 499 574 c 2
 358 528 l 1
 499 482 l 2
 520 476 533 465 533 441 c 0
 533 411 506 391 483 391 c 0
EndSplineSet
EndChar

StartChar: plus
Encoding: 43 43 10
Width: 948
Flags: MW
HStem: -132 21G<455.5 490.5> 220 61 613 20G<456 491>
VStem: 416 61
LayerCount: 2
Fore
SplineSet
833 217 m 2
 509 217 l 1
 509 -87 l 2
 509 -101 508 -132 473 -132 c 0
 438 -132 438 -100 438 -87 c 2
 438 217 l 1
 113 217 l 2
 99 217 65 218 65 250 c 0
 65 283 97 284 113 284 c 2
 438 284 l 1
 438 588 l 2
 438 602 438 633 474 633 c 0
 508 633 509 601 509 588 c 2
 509 284 l 1
 833 284 l 2
 849 284 882 283 882 250 c 0
 882 218 848 217 833 217 c 2
EndSplineSet
EndChar

StartChar: comma
Encoding: 44 44 11
Width: 338
Flags: MW
HStem: -194 21G<133 147> 0 156
VStem: 81 169
LayerCount: 2
Fore
SplineSet
138 -194 m 0
 128 -194 114 -183 114 -171 c 0
 114 -164 119 -160 125 -155 c 0
 146 -139 164 -122 180 -101 c 0
 199 -74 218 -37 223 13 c 1
 214 6 195 -3 169 -3 c 0
 112 -3 83 36 83 76 c 0
 83 120 117 156 167 156 c 0
 232 156 268 98 268 30 c 0
 268 -107 156 -194 138 -194 c 0
EndSplineSet
EndChar

StartChar: hyphen
Encoding: 45 45 12
Width: 406
Flags: MW
HStem: 174 97<11 340 11 340>
VStem: 13 305
LayerCount: 2
Fore
SplineSet
11 174 m 1
 11 271 l 1
 340 271 l 1
 340 174 l 1
 11 174 l 1
EndSplineSet
EndChar

StartChar: period
Encoding: 46 46 13
Width: 338
Flags: MW
HStem: 0 156<145 192.5>
VStem: 81 156
LayerCount: 2
Fore
SplineSet
169 0 m 0
 121 0 83 35 83 78 c 0
 83 121 121 156 169 156 c 0
 216 156 254 121 254 78 c 0
 254 35 216 0 169 0 c 0
EndSplineSet
EndChar

StartChar: slash
Encoding: 47 47 14
Width: 609
Flags: MW
HStem: -250 21G<91.5 111.5> 730 20G<497.5 517>
VStem: 64 446
LayerCount: 2
Fore
SplineSet
538 696 m 2
 137 -220 l 2
 129 -237 123 -250 100 -250 c 0
 83 -250 65 -238 65 -216 c 1
 65 -216 65 -209 70 -196 c 2
 472 720 l 2
 479 737 486 750 509 750 c 0
 525 750 544 738 544 716 c 1
 544 716 544 709 538 696 c 2
EndSplineSet
EndChar

StartChar: zero
Encoding: 48 48 15
Width: 693
Flags: MW
HStem: -11 36 425 36
VStem: 85 128 441 128
LayerCount: 2
Fore
SplineSet
544 46 m 0
 493 -1 418 -11 347 -11 c 0
 275 -11 201 -1 149 46 c 0
 99 92 87 160 87 225 c 0
 87 290 99 358 149 404 c 0
 201 451 275 461 347 461 c 0
 418 461 493 451 544 404 c 0
 594 358 606 290 606 225 c 0
 606 160 594 92 544 46 c 0
435 374 m 0
 418 402 383 420 347 420 c 0
 311 420 276 402 258 374 c 0
 231 329 229 276 229 225 c 0
 229 174 231 121 258 76 c 0
 276 48 311 30 347 30 c 0
 383 30 418 48 435 76 c 0
 462 121 464 174 464 225 c 0
 464 276 462 329 435 374 c 0
EndSplineSet
EndChar

StartChar: one
Encoding: 49 49 16
Width: 524
Flags: MW
HStem: 0 47 370 47 441 20G<295.5 317.5>
VStem: 193 119
LayerCount: 2
Fore
SplineSet
272 4 m 1
 54 0 l 1
 54 52 l 1
 201 52 l 1
 201 377 l 1
 150 365 97 365 42 365 c 1
 42 418 l 1
 120 418 193 420 263 449 c 0
 279 456 286 461 305 461 c 0
 330 461 334 449 334 434 c 2
 334 52 l 1
 482 52 l 1
 482 0 l 1
 272 4 l 1
EndSplineSet
EndChar

StartChar: two
Encoding: 50 50 17
Width: 674
Flags: MW
HStem: 0 117 414 47
VStem: 98 109 413 138
LayerCount: 2
Fore
SplineSet
554 0 m 1
 87 0 l 1
 87 28 l 2
 87 49 99 53 115 63 c 2
 305 176 l 2
 335 195 368 213 394 237 c 0
 418 259 435 284 435 316 c 0
 435 394 340 409 281 409 c 0
 254 409 229 403 204 397 c 1
 216 386 223 371 223 354 c 0
 223 323 198 298 163 298 c 0
 128 298 101 322 101 355 c 0
 101 457 241 461 314 461 c 0
 417 461 587 446 587 322 c 0
 587 251 527 221 464 193 c 2
 301 121 l 1
 489 121 l 2
 504 121 514 127 518 141 c 2
 532 186 l 1
 588 186 l 1
 554 0 l 1
EndSplineSet
EndChar

StartChar: three
Encoding: 51 51 18
Width: 687
Flags: MW
HStem: -205 43 -53 39 136 39 422 39
VStem: 117 139 394 137
LayerCount: 2
Fore
SplineSet
330 -205 m 0
 193 -205 87 -145 87 -53 c 0
 87 -1 126 27 172 27 c 0
 220 27 255 -5 255 -51 c 0
 255 -91 231 -116 199 -127 c 1
 247 -153 298 -156 324 -156 c 0
 431 -156 431 -59 431 -12 c 0
 431 40 431 133 319 133 c 2
 272 133 l 2
 251 133 240 134 240 154 c 0
 240 160 242 172 255 174 c 0
 260 175 263 175 306 178 c 0
 413 183 414 309 414 323 c 0
 414 356 411 416 326 416 c 0
 296 416 252 409 217 385 c 1
 252 375 275 351 275 314 c 0
 275 276 247 243 197 243 c 0
 155 243 121 271 121 315 c 0
 121 397 206 461 333 461 c 0
 483 461 566 399 566 320 c 0
 566 237 495 182 424 158 c 1
 570 125 600 42 600 -13 c 0
 600 -105 521 -205 330 -205 c 0
EndSplineSet
EndChar

StartChar: four
Encoding: 52 52 19
Width: 631
Flags: MW
HStem: -191 44 0 47 468 20G<440 467.5>
VStem: 331 125
LayerCount: 2
Fore
SplineSet
414 -191 m 0
 369 -191 273 -191 229 -194 c 1
 229 -141 l 1
 348 -141 l 1
 348 -2 l 1
 42 -2 l 1
 42 49 l 1
 413 471 l 2
 427 487 428 488 452 488 c 0
 483 488 487 481 487 453 c 2
 487 51 l 1
 589 51 l 1
 589 -2 l 1
 487 -2 l 1
 487 -141 l 1
 589 -141 l 1
 589 -194 l 1
 549 -191 457 -191 414 -191 c 0
359 335 m 1
 107 51 l 1
 359 51 l 1
 359 335 l 1
EndSplineSet
EndChar

StartChar: five
Encoding: 53 53 20
Width: 668
Flags: MW
HStem: -205 43 7 135 179 36 305 124 441 20G<150.5 161.5 513 515 515 523>
VStem: 136 53 403 142
LayerCount: 2
Fore
SplineSet
304 -205 m 0
 171 -205 87 -120 87 -34 c 0
 87 30 145 39 161 39 c 0
 187 39 235 23 235 -32 c 0
 235 -72 206 -96 169 -100 c 1
 213 -152 276 -156 300 -156 c 0
 424 -156 424 -61 424 12 c 0
 424 93 423 176 333 176 c 0
 290 176 234 166 193 121 c 0
 185 112 182 108 167 108 c 0
 142 108 141 122 141 142 c 2
 141 431 l 2
 141 449 142 461 159 461 c 0
 164 461 170 458 174 457 c 0
 188 452 208 446 236 440 c 0
 263 434 297 429 337 429 c 0
 382 429 438 435 498 457 c 0
 502 458 508 461 513 461 c 2
 515 461 l 2
 531 461 533 447 533 440 c 0
 533 413 433 300 278 300 c 0
 243 300 231 302 204 307 c 1
 204 185 l 1
 253 214 307 217 337 217 c 0
 496 217 581 124 581 8 c 0
 581 -115 475 -205 304 -205 c 0
EndSplineSet
EndChar

StartChar: six
Encoding: 54 54 21
Width: 687
Flags: MW
HStem: -11 43 382 36 616 39
VStem: 85 136 409 125
LayerCount: 2
Fore
SplineSet
348 -11 m 0
 273 -11 190 13 140 90 c 0
 96 158 87 239 87 317 c 0
 87 569 264 655 409 655 c 0
 523 655 569 591 569 528 c 0
 569 489 542 462 499 462 c 0
 456 462 430 491 430 526 c 0
 430 555 448 582 484 589 c 1
 461 608 429 610 411 610 c 0
 348 610 291 576 267 530 c 0
 259 516 237 473 237 361 c 2
 237 353 l 1
 282 420 339 420 361 420 c 0
 491 420 600 347 600 206 c 0
 600 71 496 -11 348 -11 c 0
352 378 m 0
 296 378 240 334 240 211 c 0
 240 193 240 121 256 90 c 0
 264 75 292 38 346 38 c 0
 449 38 449 107 449 208 c 0
 449 308 449 378 352 378 c 0
EndSplineSet
EndChar

StartChar: seven
Encoding: 55 55 22
Width: 614
Flags: MW
HStem: -199 21G<245 257> 331 125 468 20G<80 135 135 135>
VStem: 172 125
LayerCount: 2
Fore
SplineSet
561 404 m 2
 397 225 l 2
 334 157 318 35 318 -80 c 2
 318 -126 l 2
 318 -194 266 -199 248 -199 c 0
 242 -199 179 -199 179 -127 c 0
 179 21 256 155 358 267 c 0
 376 287 394 306 412 326 c 1
 240 326 l 2
 221 326 136 326 126 321 c 0
 123 320 109 309 98 230 c 1
 42 230 l 1
 80 488 l 1
 135 488 l 1
 136 483 137 477 140 473 c 0
 143 470 148 467 159 465 c 0
 173 461 328 456 353 456 c 2
 572 456 l 1
 572 419 572 416 561 404 c 2
EndSplineSet
EndChar

StartChar: eight
Encoding: 56 56 23
Width: 687
Flags: MW
HStem: -11 43 187 39 616 39
VStem: 117 75 236 86 456 75
LayerCount: 2
Fore
SplineSet
341 -11 m 0
 204 -11 87 40 87 162 c 0
 87 236 133 292 219 329 c 1
 140 373 121 435 121 479 c 0
 121 576 197 655 346 655 c 0
 467 655 566 610 566 506 c 0
 566 449 534 405 462 369 c 1
 493 353 523 335 548 311 c 0
 577 282 600 243 600 188 c 0
 600 77 512 -11 341 -11 c 0
341 610 m 0
 298 610 207 603 207 537 c 0
 207 505 235 489 252 480 c 2
 409 398 l 1
 454 426 480 459 480 505 c 0
 480 571 429 610 341 610 c 0
418 224 m 2
 275 299 l 1
 238 279 184 237 184 162 c 0
 184 87 243 38 346 38 c 0
 407 38 502 54 502 134 c 0
 502 179 465 200 418 224 c 2
EndSplineSet
EndChar

StartChar: nine
Encoding: 57 57 24
Width: 687
Flags: MW
HStem: -205 43 33 36 422 39
VStem: 190 136 427 136
LayerCount: 2
Fore
SplineSet
293 -205 m 0
 174 -205 118 -148 118 -78 c 0
 118 -39 144 -12 188 -12 c 0
 231 -12 257 -41 257 -76 c 0
 257 -116 226 -133 209 -139 c 1
 239 -155 273 -156 290 -156 c 0
 362 -156 407 -113 424 -75 c 0
 440 -42 449 16 449 88 c 2
 449 99 l 1
 410 37 361 31 325 31 c 0
 194 31 87 106 87 245 c 0
 87 380 194 461 346 461 c 0
 599 461 600 202 600 135 c 0
 600 -121 432 -205 293 -205 c 0
447 295 m 0
 445 318 442 340 436 356 c 0
 432 366 408 416 348 416 c 0
 238 416 237 341 237 243 c 0
 237 143 238 72 335 72 c 0
 421 72 448 170 448 233 c 0
 448 250 448 273 447 295 c 0
EndSplineSet
EndChar

StartChar: colon
Encoding: 58 58 25
Width: 338
Flags: MW
HStem: 0 156 288 156
VStem: 81 156
LayerCount: 2
Fore
SplineSet
169 284 m 0
 121 284 83 320 83 364 c 0
 83 408 121 444 169 444 c 0
 216 444 254 408 254 364 c 0
 254 320 216 284 169 284 c 0
169 0 m 0
 121 0 83 36 83 80 c 0
 83 124 121 160 169 160 c 0
 216 160 254 124 254 80 c 0
 254 36 216 0 169 0 c 0
EndSplineSet
EndChar

StartChar: semicolon
Encoding: 59 59 26
Width: 338
Flags: MW
HStem: -194 21G<133 147> 0 156 288 156
VStem: 81 156
LayerCount: 2
Fore
SplineSet
169 284 m 0
 121 284 83 320 83 364 c 0
 83 408 121 444 169 444 c 0
 216 444 254 408 254 364 c 0
 254 320 216 284 169 284 c 0
138 -194 m 0
 128 -194 114 -183 114 -171 c 0
 114 -165 117 -162 121 -159 c 2
 126 -154 l 2
 158 -126 202 -74 211 8 c 1
 203 4 188 -2 169 -2 c 0
 112 -2 83 37 83 78 c 0
 83 123 117 159 167 159 c 0
 231 159 258 97 258 33 c 0
 258 -102 156 -194 138 -194 c 0
EndSplineSet
EndChar

StartChar: less
Encoding: 60 60 27
Width: 948
Flags: MW
HStem: -86 21G<811.5 823> 567 20G<808 823>
LayerCount: 2
Fore
SplineSet
812 -86 m 0
 811 -86 803 -86 787 -79 c 2
 127 217 l 2
 113 223 99 231 99 251 c 0
 99 271 115 279 127 284 c 2
 790 581 l 2
 798 584 804 587 812 587 c 0
 834 587 848 570 848 554 c 0
 848 536 835 527 820 520 c 2
 216 250 l 1
 820 -19 l 2
 835 -26 848 -35 848 -53 c 0
 848 -69 834 -86 812 -86 c 0
EndSplineSet
EndChar

StartChar: equal
Encoding: 61 61 28
Width: 948
Flags: MW
HStem: 108 61 332 61
VStem: 64 765
LayerCount: 2
Fore
SplineSet
835 327 m 2
 111 327 l 2
 98 327 65 328 65 360 c 0
 65 392 100 393 117 393 c 2
 830 393 l 2
 847 393 882 392 882 360 c 0
 882 328 849 327 835 327 c 2
830 108 m 2
 117 108 l 2
 100 108 65 109 65 141 c 0
 65 173 98 174 111 174 c 2
 835 174 l 2
 849 174 882 173 882 141 c 0
 882 109 847 108 830 108 c 2
EndSplineSet
EndChar

StartChar: greater
Encoding: 62 62 29
Width: 948
Flags: MW
HStem: -86 21G<124 139> 567 20G<124.5 135.5>
LayerCount: 2
Fore
SplineSet
820 217 m 2
 156 -80 l 2
 149 -83 143 -86 135 -86 c 0
 113 -86 99 -69 99 -53 c 0
 99 -37 108 -27 127 -19 c 2
 730 251 l 1
 127 520 l 2
 109 528 99 537 99 554 c 0
 99 572 115 587 134 587 c 0
 137 587 144 587 159 580 c 2
 820 284 l 2
 831 279 848 271 848 251 c 0
 848 231 834 223 820 217 c 2
EndSplineSet
EndChar

StartChar: question
Encoding: 63 63 30
Width: 576
Flags: MW
HStem: 0 156 226 21G 509 124 664 36
VStem: 64 125 232 47 350 128
LayerCount: 2
Fore
SplineSet
481 498 m 0
 468 484 453 475 436 465 c 0
 396 443 299 384 299 284 c 2
 299 257 l 2
 299 233 299 224 270 224 c 0
 243 224 243 231 243 254 c 2
 243 292 l 2
 243 357 272 434 339 499 c 0
 359 518 368 533 368 576 c 0
 368 622 367 658 272 658 c 0
 227 658 186 648 159 631 c 1
 162 630 l 2
 188 619 204 598 204 570 c 0
 204 528 169 505 134 505 c 0
 106 505 65 521 65 571 c 0
 65 637 131 700 279 700 c 0
 319 700 510 699 510 569 c 0
 510 537 497 514 481 498 c 0
270 0 m 0
 223 0 184 36 184 80 c 0
 184 125 223 161 270 161 c 0
 318 161 356 125 356 80 c 0
 356 36 318 0 270 0 c 0
EndSplineSet
EndChar

StartChar: at
Encoding: 64 64 31
Width: 846
Flags: MW
HStem: -201 34 -155 79 10 44 406 34 512 79
VStem: 43 80 675 80
LayerCount: 2
Fore
SplineSet
741 8 m 1
 539 8 l 1
 503 85 l 2
 490 112 450 182 427 225 c 1
 367 132 213 -111 213 -111 c 2
 191 -145 245 -161 287 -161 c 1
 287 -201 l 1
 130 -201 l 2
 86 -201 67 -151 90 -122 c 0
 91 -120 163 -35 234 65 c 0
 305 165 375 278 375 337 c 0
 375 367 362 401 269 401 c 1
 269 441 l 1
 383 439 l 2
 418 439 431 426 448 397 c 2
 627 90 l 2
 643 63 651 58 658 58 c 0
 685 58 712 160 712 218 c 0
 712 383 573 507 424 507 c 0
 273 507 134 383 134 218 c 0
 134 53 273 -71 424 -71 c 0
 476 -71 522 -59 572 -29 c 0
 625 4 674 -70 616 -102 c 0
 551 -139 492 -155 423 -155 c 0
 219 -155 42 11 42 218 c 0
 42 425 219 591 423 591 c 0
 627 591 803 425 803 218 c 0
 803 138 781 80 741 8 c 1
EndSplineSet
EndChar

StartChar: A
Encoding: 65 65 32
Width: 753
Flags: MW
HStem: -1 47 637 47
LayerCount: 2
Fore
SplineSet
705 -1 m 2
 695 -1 660 -2 625 -2 c 0
 591 -3 556 -2 549 0 c 0
 522 9 500 48 495 63 c 0
 488 84 480 107 473 126 c 1
 338 99 231 74 95 -20 c 1
 66 -20 33 -11 23 33 c 1
 79 118 148 215 204 302 c 0
 261 391 300 461 300 492 c 0
 300 509 295 548 282 565 c 0
 251 609 193 631 119 631 c 1
 119 684 l 1
 200 680 266 680 355 685 c 1
 641 83 l 2
 648 69 660 51 696 51 c 2
 736 51 l 1
 736 -1 l 1
 705 -1 l 2
346 396 m 1
 298 325 240 233 190 161 c 1
 229 171 279 178 326 182 c 0
 373 187 418 189 446 191 c 1
 420 244 369 350 346 396 c 1
EndSplineSet
EndChar

StartChar: B
Encoding: 66 66 33
Width: 820
Flags: MW
HStem: -22 55 339 35 638 56
VStem: 132 132 590 131
LayerCount: 2
Fore
SplineSet
346 -22 m 0
 187 -22 137 33 137 94 c 2
 137 638 l 1
 22 638 l 1
 22 691 l 1
 113 687 195 687 283 692 c 1
 283 624 l 1
 327 657 389 694 482 694 c 0
 586 694 721 651 721 550 c 0
 721 466 648 408 579 365 c 1
 673 340 767 294 767 192 c 0
 767 51 578 -22 346 -22 c 0
390 336 m 1
 344 375 l 1
 539 414 578 486 578 540 c 0
 578 594 527 633 448 633 c 0
 395 633 330 606 284 529 c 1
 283 84 l 1
 283 84 283 38 352 38 c 0
 409 38 622 69 622 193 c 0
 622 321 488 336 390 336 c 1
EndSplineSet
EndChar

StartChar: C
Encoding: 67 67 34
Width: 881
Flags: MW
HStem: -11 47 650 47
VStem: 64 153 712 54
LayerCount: 2
Fore
SplineSet
783 422 m 0
 757 422 755 425 752 446 c 0
 729 570 629 644 516 644 c 0
 235 644 233 427 233 343 c 0
 233 259 239 42 519 42 c 0
 621 42 701 96 755 170 c 0
 765 184 780 188 792 181 c 0
 802 175 812 163 800 142 c 0
 750 55 635 -11 494 -11 c 0
 229 -11 65 138 65 343 c 0
 65 548 229 697 494 697 c 0
 567 697 716 668 815 568 c 1
 815 453 l 2
 815 426 813 422 783 422 c 0
EndSplineSet
EndChar

StartChar: D
Encoding: 68 68 35
Width: 706
Flags: MW
HStem: -15 65 637 47
VStem: 45 124 496 125
LayerCount: 2
Fore
SplineSet
352 -15 m 0
 179 -15 45 118 45 277 c 0
 45 349 69 411 114 466 c 1
 227 510 l 1
 227 445 l 1
 199 407 182 358 182 291 c 0
 182 101 289 55 352 55 c 0
 415 55 523 101 523 291 c 0
 523 447 427 522 305 585 c 0
 292 592 188 631 64 631 c 1
 64 684 l 1
 143 680 299 684 299 684 c 1
 483 601 661 506 661 277 c 0
 661 110 517 -15 352 -15 c 0
EndSplineSet
EndChar

StartChar: E
Encoding: 69 69 36
Width: 881
Flags: MW
HStem: -11 47 321 61 650 47
VStem: 64 153 537 61 712 54
LayerCount: 2
Fore
SplineSet
783 422 m 0
 757 422 755 425 752 446 c 0
 729 570 629 644 516 644 c 0
 275 644 239 484 234 385 c 1
 480 399 l 2
 564 403 566 408 566 499 c 1
 637 499 l 1
 637 206 l 1
 566 206 l 1
 566 297 563 304 480 307 c 2
 233 318 l 1
 236 223 263 42 519 42 c 0
 621 42 701 96 755 170 c 0
 765 184 780 188 792 181 c 0
 802 175 812 163 800 142 c 0
 750 55 635 -11 494 -11 c 0
 229 -11 65 138 65 343 c 0
 65 548 229 697 494 697 c 0
 567 697 716 668 815 568 c 1
 815 453 l 2
 815 426 813 422 783 422 c 0
EndSplineSet
EndChar

StartChar: F
Encoding: 70 70 37
Width: 767
Flags: MW
HStem: -97 44 317 47 439 21G 633 47
VStem: 147 142 444 47 628 47
LayerCount: 2
Fore
SplineSet
663 435 m 1
 647 553 623 627 455 627 c 2
 310 627 l 1
 310 366 l 1
 359 366 l 2
 459 366 467 407 467 483 c 1
 524 483 l 1
 524 198 l 1
 467 198 l 1
 467 273 458 314 359 314 c 2
 310 314 l 1
 310 -47 l 1
 453 -47 l 1
 453 -100 l 1
 403 -97 287 -97 235 -97 c 0
 189 -97 82 -97 38 -100 c 1
 38 -47 l 1
 153 -47 l 1
 153 627 l 1
 38 627 l 1
 38 680 l 1
 685 680 l 1
 719 435 l 1
 663 435 l 1
EndSplineSet
EndChar

StartChar: G
Encoding: 71 71 38
Width: 880
Flags: MW
HStem: -11 47 322 87 650 47
VStem: 64 153 712 54
LayerCount: 2
Fore
SplineSet
783 422 m 0
 757 422 755 425 752 446 c 0
 729 570 629 644 516 644 c 0
 235 644 233 427 233 343 c 0
 233 259 239 42 519 42 c 0
 618 42 702 144 702 210 c 0
 702 253 671 319 587 319 c 0
 543 319 511 283 476 215 c 1
 413 263 401 302 397 351 c 1
 442 394 491 411 544 411 c 0
 746 411 785 257 785 210 c 0
 785 83 653 -11 494 -11 c 0
 229 -11 65 138 65 343 c 0
 65 548 229 697 494 697 c 0
 567 697 716 668 815 568 c 1
 815 453 l 2
 815 426 813 422 783 422 c 0
EndSplineSet
EndChar

StartChar: H
Encoding: 72 72 39
Width: 810
Flags: MW
HStem: -100 49 0 47 517 50 639 44
VStem: 147 142 611 114
LayerCount: 2
Fore
SplineSet
452 -100 m 0
 413 -100 400 -86 400 -72 c 0
 400 -56 414 -45 450 -45 c 0
 575 -45 644 116 644 287 c 0
 644 483 538 512 480 512 c 0
 372 512 310 424 310 388 c 2
 310 52 l 1
 430 52 l 1
 430 -1 l 1
 384 2 280 2 231 2 c 0
 182 2 79 2 32 -1 c 1
 32 52 l 1
 153 52 l 1
 153 633 l 1
 32 633 l 1
 32 686 l 1
 79 683 182 683 231 683 c 0
 280 683 384 683 430 686 c 1
 430 633 l 1
 310 633 l 1
 310 517 l 1
 352 548 415 568 489 568 c 0
 670 568 772 444 772 275 c 0
 772 102 710 -100 452 -100 c 0
EndSplineSet
EndChar

StartChar: I
Encoding: 73 73 40
Width: 462
Flags: MW
HStem: 0 47 639 47
VStem: 147 142
LayerCount: 2
Fore
SplineSet
231 3 m 0
 182 3 79 3 32 0 c 1
 32 53 l 1
 153 53 l 1
 153 633 l 1
 32 633 l 1
 32 686 l 1
 79 683 182 683 231 683 c 0
 280 683 384 683 430 686 c 1
 430 633 l 1
 310 633 l 1
 310 53 l 1
 430 53 l 1
 430 0 l 1
 384 3 280 3 231 3 c 0
EndSplineSet
EndChar

StartChar: J
Encoding: 74 74 41
Width: 555
Flags: MW
HStem: -22 59 639 44
VStem: 215 136
LayerCount: 2
Fore
SplineSet
375 633 m 1
 375 177 l 2
 375 143 375 140 374 132 c 0
 362 50 268 -22 162 -22 c 0
 136 -22 79 -4 79 21 c 0
 79 50 95 55 119 49 c 0
 128 47 140 42 149 42 c 0
 182 42 225 79 225 159 c 2
 225 633 l 1
 75 633 l 1
 75 686 l 1
 129 683 233 683 289 683 c 0
 331 683 421 683 461 686 c 1
 461 633 l 1
 375 633 l 1
EndSplineSet
EndChar

StartChar: K
Encoding: 75 75 42
Width: 955
Flags: MW
HStem: 0 47 639 47
VStem: 147 142
LayerCount: 2
Fore
SplineSet
748 3 m 0
 701 3 605 3 559 0 c 1
 559 53 l 1
 597 53 617 53 635 59 c 1
 633 63 631 66 628 70 c 2
 412 336 l 1
 310 256 l 1
 310 53 l 1
 424 53 l 1
 424 0 l 1
 380 3 277 3 231 3 c 0
 186 3 82 3 38 0 c 1
 38 53 l 1
 153 53 l 1
 153 633 l 1
 38 633 l 1
 38 686 l 1
 82 683 186 683 231 683 c 0
 277 683 380 683 424 686 c 1
 424 633 l 1
 310 633 l 1
 310 326 l 1
 693 625 l 1
 692 625 l 1
 692 626 691 627 691 628 c 1
 691 628 l 1
 691 629 690 627 684 629 c 0
 662 633 642 633 620 633 c 1
 620 686 l 1
 662 683 738 683 778 683 c 0
 783 683 844 683 889 686 c 1
 889 633 l 1
 868 633 l 2
 840 633 793 634 771 616 c 2
 518 420 l 1
 803 71 l 2
 808 65 812 59 821 56 c 0
 830 54 844 53 872 53 c 2
 906 53 l 1
 906 0 l 1
 864 3 791 3 748 3 c 0
EndSplineSet
EndChar

StartChar: L
Encoding: 76 76 43
Width: 734
Flags: MW
HStem: 0 47 639 47
VStem: 147 142 596 47
LayerCount: 2
Fore
SplineSet
652 0 m 1
 38 0 l 1
 38 53 l 1
 153 53 l 1
 153 633 l 1
 38 633 l 1
 38 686 l 1
 82 683 189 683 235 683 c 0
 287 683 403 683 453 686 c 1
 453 633 l 1
 310 633 l 1
 310 53 l 1
 416 53 l 2
 534 53 594 113 618 211 c 0
 624 235 626 258 629 278 c 1
 685 278 l 1
 652 0 l 1
EndSplineSet
EndChar

StartChar: M
Encoding: 77 77 44
Width: 1236
Flags: MW
HStem: 0 47 649 47
VStem: 63 131 527 117 973 131
LayerCount: 2
Fore
SplineSet
896 0 m 1
 896 49 l 1
 983 116 1028 234 1028 355 c 0
 1028 481 969 643 845 643 c 0
 767 643 686 539 686 467 c 2
 686 51 l 1
 791 51 l 1
 791 -2 l 1
 728 3 660 3 621 3 c 0
 582 3 513 3 450 -2 c 1
 450 51 l 1
 555 51 l 1
 555 394 l 2
 555 507 484 643 392 643 c 0
 268 644 209 481 209 355 c 0
 209 234 254 116 341 49 c 1
 341 0 l 1
 56 0 l 1
 56 53 l 1
 92 53 164 60 197 69 c 1
 142 130 64 268 64 387 c 0
 64 546 185 696 368 696 c 0
 516 696 580 649 632 585 c 1
 633 585 l 1
 693 648 773 696 880 696 c 0
 1052 696 1173 545 1173 387 c 0
 1173 268 1095 130 1040 69 c 1
 1073 60 1144 53 1181 53 c 1
 1181 0 l 1
 896 0 l 1
EndSplineSet
EndChar

StartChar: N
Encoding: 78 78 45
Width: 954
Flags: MW
HStem: 3 47 639 47
VStem: 147 53 230 53 616 53 699 53
LayerCount: 2
Fore
SplineSet
885 633 m 2
 856 633 854 633 828 630 c 0
 802 628 800 627 800 608 c 2
 800 35 l 2
 800 12 800 0 768 0 c 0
 750 0 748 2 737 14 c 2
 215 589 l 1
 215 78 l 2
 215 59 216 58 244 55 c 0
 263 54 281 53 300 53 c 2
 330 53 l 1
 330 0 l 1
 283 3 228 3 183 3 c 0
 142 3 82 3 38 0 c 1
 38 53 l 1
 68 53 l 2
 97 53 99 53 125 55 c 0
 151 58 153 59 153 78 c 2
 153 633 l 1
 38 633 l 1
 38 686 l 1
 284 686 l 2
 307 686 310 685 321 672 c 2
 738 214 l 1
 738 608 l 2
 738 627 736 628 709 630 c 0
 690 632 672 633 653 633 c 2
 623 633 l 1
 623 686 l 1
 670 683 725 683 770 683 c 0
 811 683 871 683 915 686 c 1
 915 633 l 1
 885 633 l 2
EndSplineSet
EndChar

StartChar: O
Encoding: 79 79 46
Width: 916
Flags: MW
HStem: -11 42 657 40
VStem: 64 153 646 153
LayerCount: 2
Fore
SplineSet
457 -11 m 0
 215 -11 65 132 65 339 c 0
 65 549 213 697 458 697 c 0
 695 697 850 555 850 339 c 0
 850 134 702 -11 457 -11 c 0
638 560 m 0
 596 624 524 651 457 651 c 0
 395 651 325 627 282 567 c 0
 236 501 233 417 233 354 c 0
 233 269 241 199 276 138 c 0
 319 64 395 37 457 37 c 0
 513 37 587 58 633 129 c 0
 677 197 682 284 682 354 c 0
 682 421 678 497 638 560 c 0
EndSplineSet
EndChar

StartChar: P
Encoding: 80 80 47
Width: 811
Flags: MW
HStem: -103 47 77 57 636 47
VStem: 132 136 597 129
LayerCount: 2
Fore
SplineSet
457 76 m 0
 409 76 359 82 310 127 c 1
 314 175 326 215 389 263 c 1
 425 194 456 138 501 138 c 0
 580 138 630 266 630 377 c 0
 630 492 587 640 472 640 c 0
 361 640 287 445 287 315 c 2
 287 -50 l 1
 390 -50 l 1
 390 -103 l 1
 331 -98 256 -98 219 -98 c 0
 181 -98 93 -98 34 -103 c 1
 34 -50 l 1
 137 -50 l 1
 137 630 l 1
 34 630 l 1
 34 683 l 1
 205 683 l 2
 275 683 284 642 284 595 c 2
 284 581 l 1
 327 637 398 693 491 693 c 0
 656 693 773 550 773 399 c 0
 773 227 631 76 457 76 c 0
EndSplineSet
EndChar

StartChar: Q
Encoding: 81 81 48
Width: 916
Flags: MW
HStem: -183 68 -11 42 657 40
VStem: 64 153 646 153
LayerCount: 2
Fore
SplineSet
1002 -183 m 0
 847 -183 676 -69 583 2 c 1
 545 -7 502 -12 457 -12 c 0
 215 -12 65 131 65 338 c 0
 65 549 213 697 458 697 c 0
 695 697 850 555 850 338 c 0
 850 211 793 107 692 46 c 1
 813 -23 957 -109 1103 -109 c 0
 1128 -109 1142 -107 1169 -105 c 1
 1169 -134 l 1
 1136 -159 1069 -183 1002 -183 c 0
638 559 m 0
 596 624 524 651 457 651 c 0
 395 651 325 627 282 567 c 0
 236 501 233 417 233 353 c 0
 233 268 241 198 276 137 c 0
 319 63 395 36 457 36 c 0
 513 36 587 57 633 128 c 0
 677 196 682 284 682 353 c 0
 682 421 678 497 638 559 c 0
EndSplineSet
EndChar

StartChar: R
Encoding: 82 82 49
Width: 929
Flags: MW
HStem: 0 47 313 61 638 56
VStem: 147 136 567 129
LayerCount: 2
Fore
SplineSet
833 0 m 0
 781 -10 693 -6 644 22 c 0
 597 49 547 104 524 168 c 0
 516 190 510 211 504 228 c 0
 498 246 492 261 483 273 c 0
 465 297 436 310 368 310 c 1
 368 376 l 1
 559 414 598 486 598 540 c 0
 598 595 547 633 469 633 c 0
 415 633 350 606 304 529 c 1
 303 53 l 1
 418 53 l 1
 418 0 l 1
 376 3 272 3 228 3 c 0
 183 3 80 3 38 0 c 1
 38 53 l 1
 153 53 l 1
 153 638 l 1
 38 638 l 1
 38 691 l 1
 129 687 215 687 303 692 c 1
 303 624 l 1
 348 657 410 694 502 694 c 0
 606 694 741 651 741 550 c 0
 741 426 619 373 537 348 c 1
 601 310 647 244 680 182 c 0
 696 151 709 115 724 87 c 0
 740 59 758 40 784 40 c 0
 794 40 813 43 835 53 c 0
 845 58 864 54 872 38 c 0
 881 21 855 4 833 0 c 0
EndSplineSet
EndChar

StartChar: S
Encoding: 83 83 50
Width: 677
Flags: MW
HStem: -11 47 240 43 654 43
VStem: 64 97 477 97
LayerCount: 2
Fore
SplineSet
368 -11 m 0
 325 -11 227 -5 156 43 c 1
 109 -1 l 2
 101 -9 98 -11 87 -11 c 0
 65 -11 65 -1 65 20 c 2
 65 200 l 2
 65 224 65 232 93 232 c 0
 119 232 120 226 121 206 c 0
 129 62 287 42 368 42 c 0
 476 42 502 108 502 155 c 0
 502 199 477 224 461 239 c 0
 450 249 440 255 421 260 c 0
 402 266 374 271 328 281 c 0
 299 287 275 291 255 296 c 0
 199 309 165 321 123 361 c 0
 100 383 65 429 65 495 c 0
 65 600 142 697 305 697 c 0
 356 697 425 688 486 643 c 1
 532 685 l 2
 543 696 546 697 555 697 c 0
 577 697 578 687 578 666 c 2
 578 485 l 2
 578 461 577 454 549 454 c 0
 535 454 526 454 522 468 c 0
 521 472 521 476 519 482 c 0
 495 615 390 648 306 648 c 0
 202 648 174 588 174 547 c 0
 174 489 231 455 273 447 c 2
 427 416 l 2
 524 397 612 316 612 204 c 0
 612 103 545 -11 368 -11 c 0
EndSplineSet
EndChar

StartChar: T
Encoding: 84 84 51
Width: 797
Flags: MW
HStem: -12 47 600 80
VStem: 34 47 115 150
LayerCount: 2
Fore
SplineSet
723 573 m 1
 693 583 678 589 664 591 c 0
 650 594 638 595 617 595 c 0
 430 595 284 424 284 267 c 0
 284 161 346 41 462 41 c 0
 531 41 594 80 661 201 c 1
 718 165 735 147 745 94 c 1
 624 -8 477 -12 424 -12 c 0
 248 -12 119 84 119 242 c 0
 119 411 234 533 385 595 c 1
 249 595 l 2
 136 595 103 578 89 425 c 1
 33 425 l 1
 55 680 l 1
 598 680 l 2
 669 680 689 701 702 737 c 1
 757 727 l 1
 723 573 l 1
EndSplineSet
EndChar

StartChar: U
Encoding: 85 85 52
Width: 976
Flags: MW
HStem: -1 47 639 47
VStem: 147 142 684 112
LayerCount: 2
Fore
SplineSet
722 2 m 1
 722 71 l 1
 674 22 597 -11 490 -11 c 0
 269 -11 153 98 153 232 c 2
 153 633 l 1
 38 633 l 1
 38 686 l 1
 82 683 186 683 231 683 c 0
 277 683 380 683 424 686 c 1
 424 633 l 1
 310 633 l 1
 310 224 l 2
 310 168 312 42 494 42 c 0
 609 42 722 92 722 237 c 2
 722 633 l 1
 639 633 l 1
 639 686 l 1
 683 683 741 683 787 683 c 0
 832 683 887 683 931 686 c 1
 931 633 l 1
 847 633 l 1
 847 103 l 2
 847 66 850 51 951 51 c 1
 951 -1 l 1
 722 2 l 1
EndSplineSet
EndChar

StartChar: V
Encoding: 86 86 53
Width: 921
Flags: MW
HStem: -8 21G<444.5 462 460 473> 639 47
VStem: 26 816
LayerCount: 2
Fore
SplineSet
872 633 m 2
 798 633 793 626 787 613 c 2
 505 18 l 2
 498 3 490 -6 473 -8 c 0
 469 -8 464 -8 460 -8 c 0
 429 -8 424 1 415 20 c 2
 123 633 l 1
 24 633 l 1
 24 686 l 1
 65 683 154 683 195 683 c 0
 241 683 342 683 386 686 c 1
 386 633 l 1
 288 633 l 1
 509 169 l 1
 720 614 l 2
 721 617 724 621 724 625 c 0
 724 636 643 633 631 633 c 1
 631 686 l 1
 719 680 807 684 896 686 c 1
 896 633 l 1
 872 633 l 2
EndSplineSet
EndChar

StartChar: W
Encoding: 87 87 54
Width: 1305
Flags: MW
HStem: -14 62 639 47
VStem: 112 142 546 114 949 140
LayerCount: 2
Fore
SplineSet
1158 633 m 1
 1158 100 l 2
 1158 71 1162 69 1237 69 c 1
 1237 -2 l 1
 1009 -15 l 1
 1009 47 l 1
 955 8 872 -14 814 -14 c 0
 769 -14 680 -9 604 68 c 1
 532 11 451 -14 367 -14 c 0
 228 -14 116 41 116 186 c 2
 116 633 l 1
 17 633 l 1
 17 686 l 1
 64 683 145 683 194 683 c 0
 243 683 324 683 371 686 c 1
 371 633 l 1
 272 633 l 1
 272 136 l 2
 272 92 313 53 374 53 c 0
 470 53 576 117 576 197 c 2
 576 633 l 1
 477 633 l 1
 477 686 l 1
 524 683 595 683 643 683 c 0
 692 683 755 683 801 686 c 1
 801 633 l 1
 703 633 l 1
 703 133 l 2
 703 95 755 54 812 54 c 0
 874 54 1003 110 1003 187 c 2
 1003 633 l 1
 904 633 l 1
 904 686 l 1
 951 683 1031 683 1080 683 c 0
 1129 683 1208 683 1255 686 c 1
 1255 633 l 1
 1158 633 l 1
EndSplineSet
EndChar

StartChar: X
Encoding: 88 88 55
Width: 921
Flags: MW
HStem: 0 47 636 47
VStem: 34 801
LayerCount: 2
Fore
SplineSet
713 3 m 0
 666 3 565 3 518 0 c 1
 518 53 l 1
 603 53 l 1
 425 283 l 1
 253 70 l 1
 248 64 l 1
 247 62 l 1
 282 53 321 53 342 53 c 1
 342 0 l 1
 301 3 219 3 178 3 c 0
 133 3 81 3 33 0 c 1
 33 53 l 1
 67 53 l 2
 88 53 110 54 131 55 c 0
 163 58 165 60 174 71 c 2
 387 332 l 1
 154 633 l 1
 49 633 l 1
 49 686 l 1
 89 683 181 683 224 683 c 0
 271 683 372 683 419 686 c 1
 419 633 l 1
 334 633 l 1
 479 446 l 1
 616 616 l 1
 621 622 l 1
 623 624 l 1
 587 633 548 633 527 633 c 1
 527 686 l 1
 568 683 650 683 691 683 c 0
 737 683 788 683 836 686 c 1
 836 633 l 1
 802 633 l 2
 773 633 767 633 741 630 c 0
 706 627 705 627 694 614 c 2
 517 396 l 1
 783 53 l 1
 888 53 l 1
 888 0 l 1
 848 3 756 3 713 3 c 0
EndSplineSet
EndChar

StartChar: Y
Encoding: 89 89 56
Width: 921
Flags: MW
HStem: 0 47 639 47
VStem: 366 136
LayerCount: 2
Fore
SplineSet
878 633 m 2
 854 633 831 632 808 629 c 0
 797 627 791 625 784 615 c 2
 535 274 l 1
 535 53 l 1
 651 53 l 1
 651 0 l 1
 607 3 506 3 460 3 c 0
 416 3 312 3 270 0 c 1
 270 53 l 1
 385 53 l 1
 385 274 l 1
 122 633 l 1
 17 633 l 1
 17 686 l 1
 57 683 153 683 195 683 c 0
 243 683 345 683 392 686 c 1
 392 633 l 1
 305 633 l 1
 514 347 l 1
 710 616 l 2
 712 619 714 621 714 623 c 2
 715 625 l 1
 689 633 663 633 636 633 c 1
 636 686 l 1
 725 680 814 684 903 686 c 1
 903 633 l 1
 878 633 l 2
EndSplineSet
EndChar

StartChar: Z
Encoding: 90 90 57
Width: 745
Flags: MW
HStem: 0 51 639 47
VStem: 80 47 598 47
LayerCount: 2
Fore
SplineSet
668 0 m 1
 102 0 l 2
 78 0 65 0 65 29 c 0
 65 41 65 45 74 56 c 2
 494 633 l 1
 363 633 l 2
 216 633 146 574 138 441 c 1
 81 441 l 1
 94 686 l 1
 642 686 l 2
 665 686 679 686 679 658 c 0
 679 646 679 644 670 633 c 2
 251 57 l 1
 393 57 l 2
 608 57 622 175 631 287 c 1
 687 287 l 1
 668 0 l 1
EndSplineSet
EndChar

StartChar: a
Encoding: 97 97 58
Width: 558
Flags: MW
HStem: -1 36 78 50 396 36
LayerCount: 2
Fore
SplineSet
369 -1 m 1
 329 76 l 1
 231 58 159 44 76 -13 c 1
 53 -13 27 -6 19 29 c 1
 52 78 95 126 129 173 c 0
 164 220 190 266 190 312 c 0
 190 342 164 391 74 391 c 1
 74 432 l 1
 206 430 l 2
 240 429 253 418 270 390 c 2
 444 96 l 2
 461 66 498 40 546 40 c 1
 546 -1 l 1
 369 -1 l 1
237 245 m 1
 214 211 180 146 163 118 c 1
 183 122 210 125 235 127 c 0
 261 129 285 131 300 132 c 1
 286 159 251 219 237 245 c 1
EndSplineSet
EndChar

StartChar: b
Encoding: 98 98 59
Width: 546
Flags: MW
HStem: -14 46 214 28 403 41
VStem: 82 114 370 97
LayerCount: 2
Fore
SplineSet
253 -14 m 0
 157 -14 84 18 84 65 c 2
 84 362 l 2
 84 373 83 409 57 409 c 2
 21 409 l 1
 21 450 l 1
 88 447 148 448 211 451 c 1
 211 409 l 1
 242 431 277 444 324 444 c 0
 359 444 498 440 498 348 c 0
 498 295 443 256 395 238 c 1
 395 234 l 1
 454 223 525 191 525 126 c 0
 525 29 397 -14 253 -14 c 0
249 211 m 1
 230 243 l 1
 351 277 389 326 389 348 c 0
 389 383 344 398 306 398 c 0
 276 398 211 379 211 325 c 2
 211 61 l 2
 211 52 232 37 266 37 c 0
 300 37 405 56 405 127 c 0
 405 169 313 211 249 211 c 1
EndSplineSet
EndChar

StartChar: c
Encoding: 99 99 60
Width: 542
Flags: MW
HStem: -6 40 413 40
VStem: 38 128
LayerCount: 2
Fore
SplineSet
453 289 m 0
 438 289 429 298 423 309 c 0
 417 320 413 335 407 350 c 0
 395 379 374 408 313 408 c 0
 180 408 179 283 179 227 c 0
 179 181 180 39 323 39 c 0
 374 39 399 64 415 87 c 0
 423 97 429 108 438 118 c 0
 445 126 453 131 465 127 c 0
 472 125 482 117 482 104 c 0
 482 97 480 92 477 87 c 0
 441 32 394 -6 303 -6 c 0
 138 -6 37 89 37 222 c 0
 37 338 117 453 308 453 c 0
 368 453 432 450 484 372 c 1
 484 327 l 2
 484 298 477 289 453 289 c 0
EndSplineSet
EndChar

StartChar: d
Encoding: 100 100 61
Width: 482
Flags: MW
HStem: -10 40 391 47
VStem: 29 109 328 99
LayerCount: 2
Fore
SplineSet
248 -10 m 0
 116 -10 28 77 28 179 c 0
 28 225 44 265 73 302 c 1
 167 339 l 1
 167 283 l 1
 156 256 149 220 149 187 c 0
 149 86 219 35 258 35 c 0
 312 35 344 91 344 187 c 0
 344 285 245 341 197 359 c 0
 170 370 124 386 39 386 c 1
 39 438 l 1
 98 436 192 438 192 438 c 1
 281 406 456 338 456 179 c 0
 456 70 355 -10 248 -10 c 0
EndSplineSet
EndChar

StartChar: e
Encoding: 101 101 62
Width: 542
Flags: MW
HStem: -6 40 211 31 413 40
VStem: 38 128 310 36
LayerCount: 2
Fore
SplineSet
453 289 m 0
 438 289 429 298 423 309 c 0
 417 320 413 335 407 350 c 0
 395 379 374 408 313 408 c 0
 192 408 181 306 179 245 c 1
 289 252 l 2
 324 254 325 268 325 324 c 1
 370 324 l 1
 370 127 l 1
 325 127 l 1
 325 183 324 198 289 200 c 2
 179 208 l 1
 181 150 195 39 323 39 c 0
 374 39 399 64 415 87 c 0
 423 97 429 108 438 118 c 0
 445 126 453 131 465 127 c 0
 472 125 482 117 482 104 c 0
 482 97 480 92 477 87 c 0
 441 32 394 -6 303 -6 c 0
 138 -6 37 89 37 222 c 0
 37 338 117 453 308 453 c 0
 368 453 432 450 484 372 c 1
 484 327 l 2
 484 298 477 289 453 289 c 0
EndSplineSet
EndChar

StartChar: f
Encoding: 102 102 63
Width: 471
Flags: MW
HStem: -101 36 192 32 394 36
VStem: 96 100 303 32 383 36
LayerCount: 2
Fore
SplineSet
403 254 m 1
 394 363 388 388 300 388 c 2
 229 388 l 2
 214 388 211 386 211 373 c 0
 211 369 211 363 211 357 c 2
 211 227 l 1
 245 227 l 2
 313 227 318 254 318 306 c 1
 359 306 l 1
 359 110 l 1
 318 110 l 1
 318 162 312 189 245 189 c 2
 211 189 l 1
 211 -27 l 2
 211 -52 221 -59 271 -59 c 2
 304 -59 l 1
 304 -101 l 1
 238 -98 197 -97 156 -97 c 0
 145 -97 111 -97 23 -101 c 1
 23 -59 l 1
 53 -59 l 2
 90 -59 99 -51 99 -29 c 2
 99 368 l 2
 99 385 93 387 77 388 c 0
 70 389 62 388 53 388 c 2
 23 388 l 1
 23 430 l 1
 434 430 l 1
 448 254 l 1
 403 254 l 1
EndSplineSet
EndChar

StartChar: g
Encoding: 103 103 64
Width: 530
Flags: MW
HStem: -6 40 209 69 413 40
VStem: 38 128 414 54
LayerCount: 2
Fore
SplineSet
303 -6 m 0
 138 -6 37 89 37 222 c 0
 37 338 117 453 308 453 c 0
 368 453 432 450 484 372 c 1
 484 327 l 2
 484 298 477 289 453 289 c 0
 438 289 429 298 423 309 c 0
 417 320 413 335 407 350 c 0
 395 379 374 408 313 408 c 0
 180 408 179 283 179 227 c 0
 179 181 180 39 323 39 c 0
 385 39 436 99 436 143 c 0
 436 180 411 206 364 206 c 0
 340 206 321 187 295 135 c 1
 244 173 235 201 233 237 c 1
 266 269 300 280 335 280 c 0
 471 280 499 175 499 143 c 0
 499 56 409 -6 303 -6 c 0
EndSplineSet
EndChar

StartChar: h
Encoding: 104 104 65
Width: 588
Flags: MW
HStem: -165 58 1 33 319 59 424 33
VStem: 106 99
LayerCount: 2
Fore
SplineSet
460 -98 m 0
 442 -115 388 -165 319 -165 c 0
 280 -165 261 -146 261 -132 c 0
 261 -117 283 -102 318 -102 c 0
 466 -102 500 314 329 314 c 0
 298 314 220 291 220 182 c 2
 220 38 l 1
 296 38 l 1
 296 -4 l 1
 249 -1 236 -1 188 -1 c 0
 139 -1 80 -1 33 -4 c 1
 33 38 l 1
 109 38 l 1
 108 418 l 1
 32 418 l 1
 32 460 l 1
 79 457 138 457 187 457 c 0
 235 457 248 457 295 460 c 1
 295 418 l 1
 218 418 l 1
 218 336 l 1
 247 361 286 379 337 379 c 0
 487 379 559 246 559 128 c 0
 559 37 524 -35 460 -98 c 0
EndSplineSet
EndChar

StartChar: i
Encoding: 105 105 66
Width: 346
Flags: MW
HStem: 0 36 409 36
VStem: 103 114
LayerCount: 2
Fore
SplineSet
165 3 m 2
 162 3 l 2
 146 3 107 3 32 0 c 1
 32 41 l 1
 54 41 l 2
 85 41 97 43 102 47 c 0
 104 48 105 51 106 55 c 0
 106 59 106 64 106 71 c 2
 106 383 l 2
 106 401 103 404 53 404 c 2
 32 404 l 1
 32 445 l 1
 79 443 121 442 165 442 c 0
 211 442 257 443 306 445 c 1
 306 404 l 1
 286 404 l 2
 237 404 233 401 233 386 c 2
 233 61 l 2
 233 43 238 41 286 41 c 2
 306 41 l 1
 306 0 l 1
 257 2 211 3 165 3 c 2
EndSplineSet
EndChar

StartChar: j
Encoding: 106 106 67
Width: 346
Flags: MW
HStem: -101 58 409 36
VStem: 103 114
LayerCount: 2
Fore
SplineSet
286 403 m 2
 237 403 233 401 233 386 c 2
 233 95 l 2
 233 -31 147 -101 54 -101 c 0
 9 -101 -46 -85 -39 -57 c 0
 -36 -42 -22 -37 -7 -36 c 0
 7 -35 25 -38 42 -38 c 0
 73 -38 106 -3 106 77 c 2
 106 383 l 2
 106 401 103 403 53 403 c 2
 32 403 l 1
 32 445 l 1
 79 443 121 442 165 442 c 0
 211 442 257 443 306 445 c 1
 306 403 l 1
 286 403 l 2
EndSplineSet
EndChar

StartChar: k
Encoding: 107 107 68
Width: 643
Flags: MW
HStem: -13 45 408 36 674 20G<230 230>
VStem: 106 108
LayerCount: 2
Fore
SplineSet
577 -13 m 0
 555 -17 502 -19 459 6 c 0
 421 29 372 78 353 130 c 0
 342 162 331 214 303 236 c 1
 293 229 281 220 268 209 c 0
 254 197 240 185 225 174 c 1
 225 42 l 1
 298 42 l 1
 298 0 l 1
 166 3 l 1
 36 0 l 1
 36 42 l 1
 109 42 l 1
 109 609 l 2
 109 644 105 644 36 644 c 1
 36 686 l 1
 230 694 l 1
 230 244 l 1
 422 397 l 1
 416 402 411 404 388 404 c 1
 388 446 l 1
 513 443 l 2
 541 442 567 443 599 446 c 1
 599 404 l 1
 525 404 516 398 502 387 c 2
 367 279 l 1
 409 256 431 224 446 191 c 0
 462 159 472 124 493 95 c 0
 509 73 543 38 566 38 c 0
 589 38 612 31 612 13 c 0
 612 0 600 -9 577 -13 c 0
EndSplineSet
EndChar

StartChar: l
Encoding: 108 108 69
Width: 526
Flags: MW
HStem: 0 38 644 38
VStem: 103 115 437 48
LayerCount: 2
Fore
SplineSet
495 0 m 1
 28 0 l 1
 28 44 l 1
 49 44 l 2
 83 44 97 44 102 48 c 0
 105 49 106 51 106 55 c 0
 106 59 106 64 106 71 c 2
 106 620 l 2
 106 637 103 638 50 638 c 2
 28 638 l 1
 28 682 l 1
 87 680 128 679 171 679 c 0
 224 679 276 680 332 682 c 1
 332 638 l 1
 307 638 l 2
 266 638 248 638 240 634 c 0
 234 632 234 627 234 622 c 2
 234 613 l 1
 234 61 l 2
 234 45 237 44 275 44 c 2
 302 44 l 2
 395 44 444 71 460 169 c 1
 518 169 l 1
 495 0 l 1
EndSplineSet
EndChar

StartChar: m
Encoding: 109 109 70
Width: 833
Flags: MW
HStem: 0 35 397 41
VStem: 66 115 342 105 608 114
LayerCount: 2
Fore
SplineSet
560 0 m 1
 560 39 l 1
 614 80 641 151 641 224 c 0
 641 292 632 392 556 392 c 0
 516 392 477 334 477 291 c 2
 477 69 l 2
 477 58 487 40 516 40 c 2
 533 40 l 1
 533 0 l 1
 485 4 443 4 419 4 c 0
 394 4 352 4 304 0 c 1
 304 40 l 1
 322 40 l 2
 351 40 359 58 359 69 c 2
 359 247 l 2
 359 317 324 393 278 393 c 0
 209 393 195 294 195 228 c 0
 195 161 215 90 276 39 c 1
 276 0 l 1
 276 0 203 2 159 2 c 0
 122 2 61 -1 61 -1 c 1
 61 40 l 1
 79 40 139 43 154 55 c 0
 157 57 158 59 154 62 c 0
 106 100 67 169 67 224 c 0
 67 338 156 436 288 436 c 0
 346 436 393 411 426 375 c 1
 464 411 513 438 579 438 c 0
 690 438 768 336 768 237 c 0
 768 166 734 100 680 58 c 0
 674 53 676 52 679 50 c 0
 695 41 754 41 773 41 c 1
 773 0 l 1
 560 0 l 1
EndSplineSet
EndChar

StartChar: n
Encoding: 110 110 71
Width: 605
Flags: MW
HStem: 0 36 410 35
VStem: 99 53 413 54
LayerCount: 2
Fore
SplineSet
498 378 m 2
 498 31 l 2
 498 12 491 0 466 0 c 0
 445 0 436 10 428 20 c 2
 164 350 l 1
 164 68 l 2
 164 52 169 41 245 41 c 1
 245 0 l 1
 206 2 168 3 132 3 c 0
 97 3 61 2 21 0 c 1
 21 41 l 1
 98 41 102 51 102 68 c 2
 102 404 l 1
 21 405 l 1
 21 445 l 1
 202 445 l 2
 217 445 228 444 240 429 c 2
 435 187 l 1
 435 368 l 2
 435 393 434 405 355 405 c 1
 355 445 l 1
 394 443 430 443 466 443 c 0
 502 443 539 443 579 445 c 1
 579 405 l 1
 504 405 498 394 498 378 c 2
EndSplineSet
EndChar

StartChar: o
Encoding: 111 111 72
Width: 609
Flags: MW
HStem: -6 40 417 36
VStem: 32 128 414 128
LayerCount: 2
Fore
SplineSet
304 -6 m 0
 126 -6 31 94 31 218 c 0
 31 351 129 453 304 453 c 0
 479 453 578 352 578 218 c 0
 578 95 484 -6 304 -6 c 0
433 301 m 0
 430 325 425 346 414 363 c 0
 391 396 348 412 304 412 c 0
 253 412 210 391 190 356 c 0
 172 322 173 267 173 229 c 0
 173 142 173 39 304 39 c 0
 435 39 436 142 436 229 c 0
 436 253 436 278 433 301 c 0
EndSplineSet
EndChar

StartChar: p
Encoding: 112 112 73
Width: 677
Flags: MW
HStem: -195 36 -5 36 409 41
VStem: 105 114 471 128
LayerCount: 2
Fore
SplineSet
370 -7 m 0
 313 -7 274 8 235 35 c 1
 235 -153 l 1
 308 -153 l 1
 308 -195 l 1
 259 -193 213 -192 166 -192 c 0
 115 -192 76 -194 34 -195 c 1
 34 -153 l 1
 108 -153 l 1
 108 369 l 2
 108 395 102 400 49 400 c 2
 34 400 l 1
 34 442 l 1
 229 450 l 1
 229 404 l 1
 260 424 311 450 388 450 c 0
 531 450 638 363 638 222 c 0
 638 79 523 -7 370 -7 c 0
369 403 m 0
 302 403 251 365 239 346 c 0
 236 341 235 335 235 328 c 2
 235 120 l 2
 235 119 235 119 235 118 c 2
 235 116 l 2
 234 115 234 114 234 113 c 0
 234 84 291 35 357 35 c 0
 412 35 496 71 496 223 c 0
 496 336 445 403 369 403 c 0
EndSplineSet
EndChar

StartChar: q
Encoding: 113 113 74
Width: 639
Flags: MW
HStem: -144 128 -6 40 85 36 417 36
VStem: 32 128 414 128
LayerCount: 2
Fore
SplineSet
496 -144 m 0
 410 -144 391 -62 373 -2 c 1
 352 -6 329 -7 304 -7 c 0
 126 -7 31 93 31 217 c 0
 31 351 129 453 304 453 c 0
 479 453 578 352 578 217 c 0
 578 132 534 58 447 19 c 1
 472 -4 485 -11 515 -11 c 0
 554 -11 565 -6 569 -1 c 0
 572 2 573 5 575 8 c 0
 579 16 586 20 595 20 c 0
 606 20 616 13 616 -5 c 0
 616 -60 579 -144 496 -144 c 0
433 301 m 0
 430 325 425 346 414 362 c 0
 391 396 348 411 304 411 c 0
 253 411 210 391 190 356 c 0
 172 321 173 266 173 228 c 0
 173 169 174 102 213 67 c 1
 224 117 280 124 301 124 c 0
 345 124 374 100 401 72 c 1
 435 110 436 173 436 228 c 0
 436 252 436 277 433 301 c 0
301 83 m 0
 272 83 259 69 259 59 c 0
 259 54 259 48 261 43 c 1
 274 40 288 38 304 38 c 0
 325 38 342 41 356 45 c 1
 347 62 330 83 301 83 c 0
EndSplineSet
EndChar

StartChar: r
Encoding: 114 114 75
Width: 542
Flags: MW
HStem: -1 36 208 36 403 41
VStem: 67 101 324 108
LayerCount: 2
Fore
SplineSet
502 2 m 0
 467 2 432 -2 400 16 c 0
 370 34 334 68 319 111 c 0
 312 131 304 163 290 180 c 0
 277 196 257 205 212 205 c 1
 212 246 l 1
 319 263 340 301 340 331 c 0
 340 397 297 398 278 398 c 0
 235 398 181 359 181 310 c 2
 181 90 l 2
 181 64 185 40 248 40 c 1
 248 -1 l 1
 127 3 l 1
 10 -1 l 1
 10 40 l 1
 64 40 68 65 68 90 c 2
 68 383 l 2
 68 394 63 409 37 409 c 2
 3 409 l 1
 3 450 l 1
 70 447 118 448 181 451 c 1
 181 392 l 1
 218 431 267 444 307 444 c 0
 358 444 461 414 461 331 c 0
 461 288 424 246 369 219 c 1
 420 193 426 157 441 112 c 0
 443 107 444 102 446 99 c 0
 458 74 486 61 502 61 c 0
 522 61 536 47 536 31 c 0
 536 17 526 2 502 2 c 0
EndSplineSet
EndChar

StartChar: s
Encoding: 115 115 76
Width: 480
Flags: MW
HStem: -6 36 421 32
VStem: 38 48 344 71
LayerCount: 2
Fore
SplineSet
92 9 m 1
 93 9 l 1
 71 -5 68 -6 59 -6 c 0
 38 -6 37 4 37 25 c 2
 37 132 l 2
 37 155 38 164 66 164 c 0
 81 164 89 164 94 148 c 0
 108 106 134 35 244 35 c 0
 268 35 361 36 361 107 c 0
 361 161 290 173 246 181 c 0
 205 187 175 192 149 200 c 0
 123 208 102 218 81 236 c 0
 59 253 37 280 37 321 c 0
 37 452 203 453 235 453 c 0
 277 453 314 447 342 435 c 1
 382 453 385 453 390 453 c 0
 412 453 412 443 412 422 c 2
 412 343 l 2
 412 320 412 313 384 313 c 0
 359 313 358 319 356 335 c 0
 351 387 313 415 234 415 c 0
 215 415 119 417 119 357 c 0
 119 314 183 303 224 296 c 0
 266 289 295 285 319 278 c 0
 344 272 363 263 384 248 c 0
 422 221 443 185 443 141 c 0
 443 -6 277 -6 244 -6 c 0
 223 -6 168 -6 119 25 c 1
 106 17 l 2
 100 13 93 10 92 9 c 1
EndSplineSet
EndChar

StartChar: t
Encoding: 116 116 77
Width: 513
Flags: MW
HStem: -8 40 377 59
VStem: 21 36 72 113 422 34
LayerCount: 2
Fore
SplineSet
462 356 m 1
 420 371 415 372 390 372 c 0
 281 372 199 267 199 173 c 0
 199 88 247 37 283 37 c 0
 321 37 368 87 395 153 c 1
 439 125 459 102 466 63 c 1
 385 -5 305 -8 270 -8 c 0
 158 -8 73 54 73 157 c 0
 73 248 162 336 245 372 c 1
 172 372 l 2
 90 372 72 359 63 263 c 1
 19 263 l 1
 34 436 l 1
 379 436 l 2
 397 436 434 437 445 471 c 1
 487 466 l 1
 462 356 l 1
EndSplineSet
EndChar

StartChar: u
Encoding: 117 117 78
Width: 589
Flags: MW
HStem: -1 36 405 36
VStem: 58 105 362 101
LayerCount: 2
Fore
SplineSet
384 -1 m 1
 384 50 l 1
 350 15 305 -11 261 -11 c 0
 94 -11 58 102 58 183 c 0
 58 259 86 318 121 382 c 1
 121 382 122 387 112 391 c 0
 103 396 87 400 58 400 c 1
 58 441 l 1
 264 442 l 1
 261 437 176 298 176 185 c 0
 176 110 207 31 266 31 c 0
 318 31 381 81 381 198 c 2
 381 341 l 2
 381 372 374 400 305 400 c 1
 305 441 l 1
 494 442 l 1
 494 70 l 2
 494 42 498 40 570 40 c 1
 570 -1 l 1
 384 -1 l 1
EndSplineSet
EndChar

StartChar: v
Encoding: 118 118 79
Width: 598
Flags: MW
HStem: -11 37 406 36
VStem: 104 101 410 112
LayerCount: 2
Fore
SplineSet
306 -11 m 0
 141 -11 107 86 107 164 c 2
 107 309 l 2
 107 368 108 401 31 401 c 1
 31 442 l 1
 220 442 l 1
 220 120 l 2
 220 82 239 31 306 31 c 0
 373 31 431 119 431 268 c 0
 431 368 399 399 297 401 c 1
 297 442 l 1
 378 442 l 2
 492 442 556 351 556 268 c 0
 556 145 488 -11 306 -11 c 0
EndSplineSet
EndChar

StartChar: w
Encoding: 119 119 80
Width: 833
Flags: MW
HStem: 2 38 404 38
VStem: 66 115 342 105 607 115
LayerCount: 2
Fore
SplineSet
579 0 m 0
 513 0 464 27 426 63 c 1
 393 27 346 2 288 2 c 0
 156 2 67 90 67 224 c 0
 67 289 102 340 132 376 c 0
 138 383 130 387 118 391 c 0
 104 395 84 398 61 398 c 1
 61 439 l 1
 61 439 133 436 170 436 c 0
 214 436 265 438 265 438 c 1
 265 398 l 1
 217 347 195 277 195 210 c 0
 195 144 209 45 278 45 c 0
 324 45 359 121 359 191 c 2
 359 369 l 2
 359 381 351 399 322 399 c 2
 303 399 l 1
 303 442 l 1
 419 442 l 2
 465 442 476 402 476 377 c 2
 477 147 l 2
 477 104 516 46 556 46 c 0
 632 46 640 145 640 214 c 0
 640 337 614 396 515 397 c 1
 515 442 l 1
 587 442 l 2
 688 442 768 354 768 231 c 0
 768 102 690 0 579 0 c 0
EndSplineSet
EndChar

StartChar: x
Encoding: 120 120 81
Width: 643
Flags: MW
HStem: 0 36 409 36
LayerCount: 2
Fore
SplineSet
372 245 m 1
 533 67 l 1
 541 59 l 2
 546 53 551 48 558 46 c 0
 567 42 582 41 613 41 c 2
 623 41 l 1
 623 0 l 1
 582 2 545 3 507 3 c 0
 463 3 420 2 373 0 c 1
 373 41 l 1
 403 42 411 44 411 49 c 0
 411 50 410 53 393 71 c 0
 378 88 350 118 301 172 c 1
 262 131 235 104 218 87 c 0
 201 68 195 61 195 57 c 0
 195 53 199 43 233 41 c 1
 233 0 l 1
 194 2 158 3 122 3 c 0
 89 3 56 2 20 0 c 1
 20 41 l 1
 66 42 89 46 103 53 c 0
 113 57 120 63 127 70 c 2
 133 77 l 1
 264 213 l 1
 114 379 l 2
 93 403 90 404 43 404 c 2
 25 404 l 1
 25 445 l 1
 68 443 106 442 145 442 c 0
 188 442 230 443 276 445 c 1
 276 404 l 1
 247 401 l 1
 235 397 l 1
 239 392 245 385 257 372 c 0
 271 357 294 331 335 287 c 1
 371 326 394 349 408 363 c 0
 422 378 426 383 426 388 c 0
 426 400 404 403 389 404 c 1
 389 445 l 1
 428 443 465 442 501 442 c 0
 534 442 567 443 602 445 c 1
 602 404 l 1
 560 403 537 399 522 393 c 0
 508 387 500 380 490 369 c 2
 372 245 l 1
EndSplineSet
EndChar

StartChar: y
Encoding: 121 121 82
Width: 643
Flags: MW
HStem: -195 48 409 36
VStem: 248 109
LayerCount: 2
Fore
SplineSet
567 390 m 0
 557 381 551 364 546 352 c 2
 389 16 l 2
 382 1 382 -1 382 -20 c 2
 382 -142 l 1
 455 -142 l 1
 455 -195 l 1
 407 -193 361 -192 317 -192 c 0
 292 -192 266 -192 187 -195 c 1
 187 -142 l 1
 260 -142 l 1
 260 -21 l 2
 260 -5 260 1 253 15 c 2
 245 33 l 1
 82 383 l 2
 74 400 67 402 49 403 c 0
 42 403 33 403 21 403 c 2
 10 403 l 1
 10 445 l 1
 52 443 91 442 131 442 c 0
 175 442 219 443 266 445 c 1
 266 403 l 1
 258 403 l 2
 223 403 211 404 211 394 c 0
 211 390 213 384 218 374 c 2
 356 79 l 1
 487 360 l 2
 490 366 496 378 496 385 c 0
 496 401 467 402 445 404 c 1
 445 445 l 1
 480 443 513 442 545 442 c 0
 572 442 601 443 632 445 c 1
 632 403 l 1
 594 403 577 398 567 390 c 0
EndSplineSet
EndChar

StartChar: z
Encoding: 122 122 83
Width: 542
Flags: MW
HStem: 0 40 408 36
VStem: 32 430
LayerCount: 2
Fore
SplineSet
474 0 m 1
 68 0 l 2
 46 0 31 1 31 25 c 0
 31 34 31 37 41 48 c 2
 333 403 l 1
 249 403 l 2
 142 403 110 368 104 265 c 1
 47 265 l 1
 61 444 l 1
 453 444 l 2
 474 444 490 443 490 420 c 0
 490 409 485 405 478 397 c 2
 189 45 l 1
 273 45 l 2
 411 45 427 103 437 205 c 1
 493 205 l 1
 474 0 l 1
EndSplineSet
EndChar

StartChar: dieresis
Encoding: 168 168 84
Width: 339
Flags: MW
HStem: 484 129<58 99 56.5 100.5 232.5 273>
VStem: 11 126 175 127
LayerCount: 2
Fore
SplineSet
252 484 m 0
 213 484 182 515 182 549 c 0
 182 579 209 613 253 613 c 0
 293 613 323 582 323 549 c 0
 323 518 298 484 252 484 c 0
78 484 m 0
 38 484 8 515 8 549 c 0
 8 579 34 613 79 613 c 0
 119 613 148 582 148 549 c 0
 148 518 123 484 78 484 c 0
EndSplineSet
EndChar

StartChar: tonos
Encoding: 900 900 85
Width: 177
Flags: W
LayerCount: 2
Fore
SplineSet
80 673 m 0
 82 678 94 700 121 700 c 0
 129 700 177 694 177 649 c 0
 177 637 175 629 165 616 c 0
 156 605 141 588 114 554 c 2
 60 487 l 2
 44 467 14 495 14 505 c 0
 14 508 74 661 80 673 c 0
EndSplineSet
EndChar

StartChar: dieresistonos
Encoding: 901 901 86
Width: 666
Flags: MW
HStem: 498 156
VStem: 68 155 410 156
LayerCount: 2
Fore
SplineSet
517 498 m 0
 472 498 431 531 431 577 c 0
 431 624 475 655 517 655 c 0
 562 655 603 622 603 577 c 0
 603 537 568 498 517 498 c 0
409 603 m 0
 388 583 350 550 282 489 c 1
 279 489 l 1
 256 501 l 1
 260 517 264 530 294 636 c 0
 298 651 301 666 309 680 c 0
 318 697 334 711 361 711 c 0
 393 711 435 687 435 650 c 0
 435 634 430 625 409 603 c 0
155 498 m 0
 110 498 69 531 69 577 c 0
 69 616 104 655 155 655 c 0
 200 655 240 622 240 577 c 0
 240 533 202 498 155 498 c 0
EndSplineSet
EndChar

StartChar: Alphatonos
Encoding: 902 902 87
Width: 753
Flags: W
LayerCount: 2
Fore
SplineSet
705 -1 m 1
 686 3 550 2 538 -1 c 0
 513 -1 501 47 495 63 c 0
 488 84 480 107 473 126 c 1
 338 99 231 74 95 -20 c 1
 66 -20 33 -11 23 33 c 1
 79 118 148 215 204 302 c 0
 261 391 300 461 300 492 c 0
 300 509 295 523 282 542 c 0
 251 585 193 608 119 608 c 1
 119 684 l 1
 200 680 266 679 355 684 c 1
 641 83 l 2
 644 77 648 74 656 73 c 0
 668 71 685 72 696 72 c 2
 736 72 l 1
 736 -1 l 1
 705 -1 l 1
353 382 m 1
 305 312 259 240 210 170 c 1
 287 191 384 204 438 209 c 1
 413 260 375 338 353 382 c 1
EndSplineSet
EndChar

StartChar: anoteleia
Encoding: 903 903 88
Width: 383
Flags: MW
HStem: 289 156<170 213.5 170 216>
VStem: 102 156
LayerCount: 2
Fore
SplineSet
191 289 m 0
 146 289 105 322 105 367 c 0
 105 414 149 445 191 445 c 0
 236 445 277 412 277 367 c 0
 277 328 241 289 191 289 c 0
EndSplineSet
EndChar

StartChar: Epsilontonos
Encoding: 904 904 89
Width: 765
Flags: W
LayerCount: 2
Fore
SplineSet
658 469 m 0
 631 469 627 480 620 500 c 0
 592 588 534 633 436 633 c 0
 386 633 227 609 207 390 c 1
 405 399 l 2
 488 402 491 408 491 499 c 1
 562 499 l 1
 562 206 l 1
 491 206 l 1
 491 297 487 304 405 307 c 2
 205 315 l 1
 217 75 386 50 437 50 c 0
 538 50 581 88 638 161 c 0
 648 175 665 179 682 170 c 0
 709 155 705 141 694 121 c 0
 644 34 566 -22 425 -22 c 0
 227 -22 56 136 56 342 c 0
 56 545 226 705 425 705 c 0
 522 705 620 700 697 582 c 1
 697 513 l 2
 697 493 696 469 658 469 c 0
EndSplineSet
EndChar

StartChar: Etatonos
Encoding: 905 905 90
Width: 954
Flags: MW
HStem: 0 47 333 47 639 47
VStem: 147 142 610 142
LayerCount: 2
Fore
SplineSet
722 3 m 0
 676 3 573 3 529 0 c 1
 529 53 l 1
 643 53 l 1
 643 330 l 1
 310 330 l 1
 310 53 l 1
 424 53 l 1
 424 0 l 1
 380 3 277 3 231 3 c 0
 186 3 82 3 38 0 c 1
 38 53 l 1
 153 53 l 1
 153 633 l 1
 38 633 l 1
 38 686 l 1
 82 683 186 683 231 683 c 0
 277 683 380 683 424 686 c 1
 424 633 l 1
 310 633 l 1
 310 383 l 1
 643 383 l 1
 643 633 l 1
 529 633 l 1
 529 686 l 1
 573 683 676 683 722 683 c 0
 767 683 871 683 915 686 c 1
 915 633 l 1
 800 633 l 1
 800 53 l 1
 915 53 l 1
 915 0 l 1
 871 3 767 3 722 3 c 0
EndSplineSet
EndChar

StartChar: Iotatonos
Encoding: 906 906 91
Width: 462
Flags: MW
HStem: 0 47 639 47
VStem: 147 142
LayerCount: 2
Fore
SplineSet
231 3 m 0
 182 3 79 3 32 0 c 1
 32 53 l 1
 153 53 l 1
 153 633 l 1
 32 633 l 1
 32 686 l 1
 79 683 182 683 231 683 c 0
 280 683 384 683 430 686 c 1
 430 633 l 1
 310 633 l 1
 310 53 l 1
 430 53 l 1
 430 0 l 1
 384 3 280 3 231 3 c 0
EndSplineSet
EndChar

StartChar: Omicrontonos
Encoding: 908 908 92
Width: 916
Flags: MW
HStem: -11 42 657 40
VStem: 64 153 646 153
LayerCount: 2
Fore
SplineSet
457 -11 m 0
 215 -11 65 132 65 339 c 0
 65 549 213 697 458 697 c 0
 695 697 850 555 850 339 c 0
 850 134 702 -11 457 -11 c 0
638 560 m 0
 596 624 524 651 457 651 c 0
 395 651 325 627 282 567 c 0
 236 501 233 417 233 354 c 0
 233 269 241 199 276 138 c 0
 319 64 395 37 457 37 c 0
 513 37 587 58 633 129 c 0
 677 197 682 284 682 354 c 0
 682 421 678 497 638 560 c 0
EndSplineSet
EndChar

StartChar: Upsilontonos
Encoding: 910 910 93
Width: 825
Flags: W
LayerCount: 2
Fore
SplineSet
411 539 m 1
 439 618 494 702 606 705 c 0
 734 708 768 588 768 533 c 0
 768 498 754 432 669 432 c 0
 617 432 601 469 601 494 c 0
 601 529 628 552 667 554 c 0
 671 555 676 554 680 555 c 0
 683 556 684 556 684 559 c 0
 684 570 604 621 541 558 c 0
 470 488 481 323 480 232 c 0
 480 226 479 195 479 162 c 0
 479 129 479 95 481 80 c 1
 482 79 l 2
 485 76 490 74 503 73 c 0
 516 73 535 73 563 73 c 2
 608 73 l 1
 608 0 l 1
 572 0 l 2
 554 3 272 3 253 0 c 2
 216 0 l 1
 216 73 l 1
 262 73 l 2
 290 73 309 73 322 74 c 0
 335 75 340 76 342 79 c 2
 343 80 l 1
 347 110 344 204 344 221 c 0
 344 302 344 368 343 377 c 0
 333 521 281 588 209 588 c 0
 189 588 139 578 134 537 c 0
 131 515 122 503 95 503 c 0
 76 502 55 509 55 537 c 0
 55 597 94 693 187 704 c 0
 295 717 366 648 411 539 c 1
EndSplineSet
EndChar

StartChar: Omegatonos
Encoding: 911 911 94
Width: 1060
Flags: MW
HStem: -22 64 517 47 643 62
VStem: 55 137 440 118 806 138
LayerCount: 2
Fore
SplineSet
727 -22 m 0
 623 -22 564 21 530 61 c 1
 467 -15 370 -22 332 -22 c 0
 166 -22 55 149 55 341 c 0
 55 540 179 705 342 705 c 0
 350 705 382 700 382 672 c 0
 382 652 364 638 346 638 c 0
 302 638 207 590 207 345 c 0
 207 144 272 47 340 47 c 0
 345 47 459 60 463 94 c 1
 463 103 l 1
 463 480 l 2
 463 491 463 505 454 509 c 0
 447 512 421 513 390 513 c 1
 390 565 l 1
 444 562 493 562 522 562 c 0
 546 562 610 561 669 566 c 1
 669 513 l 1
 638 513 611 512 603 509 c 0
 595 505 595 491 595 480 c 2
 595 103 l 2
 595 92 595 91 606 82 c 0
 639 57 683 47 719 47 c 0
 786 47 851 145 851 345 c 0
 851 592 757 638 713 638 c 0
 695 638 677 652 677 672 c 0
 677 700 709 705 717 705 c 0
 805 705 880 656 932 583 c 0
 983 511 1004 424 1004 341 c 0
 1004 150 892 -22 727 -22 c 0
EndSplineSet
EndChar

StartChar: iotadieresistonos
Encoding: 912 912 95
Width: 337
Flags: MW
HStem: 0 36 409 36 498 156
VStem: 103 114
LayerCount: 2
Fore
SplineSet
252 479 m 0
 213 479 182 511 182 547 c 0
 182 578 209 613 253 613 c 0
 293 613 323 581 323 547 c 0
 323 515 298 479 252 479 c 0
78 479 m 0
 38 479 8 512 8 547 c 0
 8 578 34 613 79 613 c 0
 119 613 148 581 148 547 c 0
 148 515 123 479 78 479 c 0
165 3 m 2
 162 3 l 2
 146 3 107 3 32 0 c 1
 32 42 l 1
 54 42 l 2
 85 42 97 43 102 47 c 0
 104 49 105 51 106 55 c 0
 106 59 106 64 106 71 c 2
 106 384 l 2
 106 403 103 405 53 405 c 2
 32 405 l 1
 32 447 l 1
 79 445 121 444 165 444 c 0
 211 444 257 445 306 447 c 1
 306 405 l 1
 286 405 l 2
 237 405 233 403 233 387 c 2
 233 61 l 2
 233 43 238 42 286 42 c 2
 306 42 l 1
 306 0 l 1
 257 2 211 3 165 3 c 2
EndSplineSet
EndChar

StartChar: Alpha
Encoding: 913 913 96
Width: 753
Flags: MW
HStem: -1 47 637 47
LayerCount: 2
Fore
SplineSet
705 -1 m 2
 695 -1 660 -2 625 -2 c 0
 591 -3 556 -2 549 0 c 0
 522 9 500 48 495 63 c 0
 488 84 480 107 473 126 c 1
 338 99 231 74 95 -20 c 1
 66 -20 33 -11 23 33 c 1
 79 118 148 215 204 302 c 0
 261 391 300 461 300 492 c 0
 300 509 295 548 282 565 c 0
 251 609 193 631 119 631 c 1
 119 684 l 1
 200 680 266 680 355 685 c 1
 641 83 l 2
 648 69 660 51 696 51 c 2
 736 51 l 1
 736 -1 l 1
 705 -1 l 2
346 396 m 1
 298 325 240 233 190 161 c 1
 229 171 279 178 326 182 c 0
 373 187 418 189 446 191 c 1
 420 244 369 350 346 396 c 1
EndSplineSet
EndChar

StartChar: Beta
Encoding: 914 914 97
Width: 820
Flags: MW
HStem: -22 55 339 35 638 56
VStem: 132 132 590 131
LayerCount: 2
Fore
SplineSet
346 -22 m 0
 187 -22 137 33 137 94 c 2
 137 638 l 1
 22 638 l 1
 22 691 l 1
 113 687 195 687 283 692 c 1
 283 624 l 1
 327 657 389 694 482 694 c 0
 586 694 721 651 721 550 c 0
 721 466 648 408 579 365 c 1
 673 340 767 294 767 192 c 0
 767 51 578 -22 346 -22 c 0
390 336 m 1
 344 375 l 1
 539 414 578 486 578 540 c 0
 578 594 527 633 448 633 c 0
 395 633 330 606 284 529 c 1
 283 84 l 1
 283 84 283 38 352 38 c 0
 409 38 622 69 622 193 c 0
 622 321 488 336 390 336 c 1
EndSplineSet
EndChar

StartChar: Gamma
Encoding: 915 915 98
Width: 734
Flags: MW
HStem: -97 44 439 21G 633 47
VStem: 147 142 596 47
LayerCount: 2
Fore
SplineSet
629 435 m 1
 613 553 593 627 429 627 c 2
 310 627 l 1
 310 -47 l 1
 453 -47 l 1
 453 -100 l 1
 403 -97 287 -97 235 -97 c 0
 189 -97 82 -97 38 -100 c 1
 38 -47 l 1
 153 -47 l 1
 153 627 l 1
 38 627 l 1
 38 680 l 1
 652 680 l 1
 685 435 l 1
 629 435 l 1
EndSplineSet
EndChar

StartChar: Epsilon
Encoding: 917 917 99
Width: 881
Flags: MW
HStem: -11 47 650 47
VStem: 64 153 717 49
LayerCount: 2
Fore
SplineSet
783 422 m 0
 757 422 755 425 752 446 c 0
 729 570 629 644 516 644 c 0
 275 644 239 484 234 385 c 1
 480 399 l 2
 564 403 566 408 566 499 c 1
 637 499 l 1
 637 206 l 1
 566 206 l 1
 566 297 563 304 480 307 c 2
 233 318 l 1
 236 223 263 42 519 42 c 0
 621 42 701 96 755 170 c 0
 765 184 780 188 792 181 c 0
 802 175 812 163 800 142 c 0
 750 55 635 -11 494 -11 c 0
 229 -11 65 138 65 343 c 0
 65 548 229 697 494 697 c 0
 567 697 716 668 815 568 c 1
 815 453 l 2
 815 426 813 422 783 422 c 0
EndSplineSet
EndChar

StartChar: Zeta
Encoding: 918 918 100
Width: 745
Flags: MW
HStem: 0 51 639 47
VStem: 80 47 598 47
LayerCount: 2
Fore
SplineSet
668 0 m 1
 102 0 l 2
 78 0 65 0 65 29 c 0
 65 41 65 45 74 56 c 2
 494 633 l 1
 363 633 l 2
 216 633 146 574 138 441 c 1
 81 441 l 1
 94 686 l 1
 642 686 l 2
 665 686 679 686 679 658 c 0
 679 646 679 644 670 633 c 2
 251 57 l 1
 393 57 l 2
 608 57 622 175 631 287 c 1
 687 287 l 1
 668 0 l 1
EndSplineSet
EndChar

StartChar: Eta
Encoding: 919 919 101
Width: 954
Flags: MW
HStem: 0 47 333 47 639 47
VStem: 147 142 610 142
LayerCount: 2
Fore
SplineSet
722 3 m 0
 676 3 573 3 529 0 c 1
 529 53 l 1
 643 53 l 1
 643 330 l 1
 310 330 l 1
 310 53 l 1
 424 53 l 1
 424 0 l 1
 380 3 277 3 231 3 c 0
 186 3 82 3 38 0 c 1
 38 53 l 1
 153 53 l 1
 153 633 l 1
 38 633 l 1
 38 686 l 1
 82 683 186 683 231 683 c 0
 277 683 380 683 424 686 c 1
 424 633 l 1
 310 633 l 1
 310 383 l 1
 643 383 l 1
 643 633 l 1
 529 633 l 1
 529 686 l 1
 573 683 676 683 722 683 c 0
 767 683 871 683 915 686 c 1
 915 633 l 1
 800 633 l 1
 800 53 l 1
 915 53 l 1
 915 0 l 1
 871 3 767 3 722 3 c 0
EndSplineSet
EndChar

StartChar: Theta
Encoding: 920 920 102
Width: 948
Flags: MW
HStem: -11 38 304 81 661 36
VStem: 64 143 686 143
LayerCount: 2
Fore
SplineSet
473 -11 m 0
 218 -11 65 134 65 340 c 0
 65 537 206 697 474 697 c 0
 734 697 882 542 882 340 c 0
 882 138 733 -11 473 -11 c 0
676 554 m 0
 630 624 550 655 473 655 c 0
 403 655 322 629 272 556 c 0
 238 506 227 446 223 388 c 1
 724 388 l 1
 719 450 707 506 676 554 c 0
223 301 m 1
 225 248 235 188 266 139 c 0
 321 51 414 33 473 33 c 0
 542 33 620 56 669 122 c 0
 711 176 721 244 724 301 c 1
 223 301 l 1
EndSplineSet
EndChar

StartChar: Iota
Encoding: 921 921 103
Width: 462
Flags: MW
HStem: 0 47 639 47
VStem: 147 142
LayerCount: 2
Fore
SplineSet
231 3 m 0
 182 3 79 3 32 0 c 1
 32 53 l 1
 153 53 l 1
 153 633 l 1
 32 633 l 1
 32 686 l 1
 79 683 182 683 231 683 c 0
 280 683 384 683 430 686 c 1
 430 633 l 1
 310 633 l 1
 310 53 l 1
 430 53 l 1
 430 0 l 1
 384 3 280 3 231 3 c 0
EndSplineSet
EndChar

StartChar: Kappa
Encoding: 922 922 104
Width: 955
Flags: MW
HStem: 0 47 639 47
VStem: 147 142
LayerCount: 2
Fore
SplineSet
748 3 m 0
 701 3 605 3 559 0 c 1
 559 53 l 1
 597 53 617 53 635 59 c 1
 633 63 631 66 628 70 c 2
 412 336 l 1
 310 256 l 1
 310 53 l 1
 424 53 l 1
 424 0 l 1
 380 3 277 3 231 3 c 0
 186 3 82 3 38 0 c 1
 38 53 l 1
 153 53 l 1
 153 633 l 1
 38 633 l 1
 38 686 l 1
 82 683 186 683 231 683 c 0
 277 683 380 683 424 686 c 1
 424 633 l 1
 310 633 l 1
 310 326 l 1
 693 625 l 1
 692 625 l 1
 692 626 691 627 691 628 c 1
 691 628 l 1
 691 629 690 627 684 629 c 0
 662 633 642 633 620 633 c 1
 620 686 l 1
 662 683 738 683 778 683 c 0
 783 683 844 683 889 686 c 1
 889 633 l 1
 868 633 l 2
 840 633 793 634 771 616 c 2
 518 420 l 1
 803 71 l 2
 808 65 812 59 821 56 c 0
 830 54 844 53 872 53 c 2
 906 53 l 1
 906 0 l 1
 864 3 791 3 748 3 c 0
EndSplineSet
EndChar

StartChar: Lambda
Encoding: 923 923 105
Width: 854
Flags: MW
HStem: 0 47 637 47
LayerCount: 2
Fore
SplineSet
646 3 m 0
 598 3 500 3 454 0 c 1
 454 53 l 1
 554 53 l 1
 376 489 l 1
 207 73 l 1
 203 62 l 1
 205 53 291 53 298 53 c 1
 298 0 l 1
 255 3 197 3 157 3 c 0
 116 3 76 1 39 0 c 1
 39 53 l 1
 59 53 81 52 100 54 c 0
 131 58 133 59 139 73 c 2
 340 554 l 2
 358 596 310 631 233 631 c 1
 233 684 l 1
 314 680 380 680 464 684 c 1
 722 53 l 1
 814 53 l 1
 814 0 l 1
 774 3 687 3 646 3 c 0
EndSplineSet
EndChar

StartChar: Mu
Encoding: 924 924 106
Width: 1158
Flags: MW
HStem: 0 47 639 47
VStem: 148 53 231 53 818 125
LayerCount: 2
Fore
SplineSet
216 612 m 1
 216 78 l 2
 216 59 218 58 245 55 c 0
 264 54 282 53 301 53 c 2
 331 53 l 1
 331 0 l 1
 284 3 229 3 184 3 c 0
 143 3 83 3 39 0 c 1
 39 53 l 1
 69 53 l 2
 98 53 100 53 126 55 c 0
 152 58 154 59 154 78 c 2
 154 633 l 1
 39 633 l 1
 39 686 l 1
 278 686 l 2
 301 686 315 686 327 659 c 2
 579 141 l 1
 830 659 l 2
 843 686 856 686 880 686 c 2
 1117 686 l 1
 1117 633 l 1
 1003 633 l 1
 1003 53 l 1
 1117 53 l 1
 1117 0 l 1
 1076 3 976 3 933 3 c 0
 889 3 791 3 749 0 c 1
 749 53 l 1
 864 53 l 1
 864 625 l 1
 573 26 l 2
 569 17 560 0 536 0 c 0
 523 0 510 6 500 27 c 2
 216 612 l 1
EndSplineSet
EndChar

StartChar: Nu
Encoding: 925 925 107
Width: 954
Flags: MW
HStem: 3 47 639 47
VStem: 147 53 230 53 616 53 699 53
LayerCount: 2
Fore
SplineSet
885 633 m 2
 856 633 854 633 828 630 c 0
 802 628 800 627 800 608 c 2
 800 35 l 2
 800 12 800 0 768 0 c 0
 750 0 748 2 737 14 c 2
 215 589 l 1
 215 78 l 2
 215 59 216 58 244 55 c 0
 263 54 281 53 300 53 c 2
 330 53 l 1
 330 0 l 1
 283 3 228 3 183 3 c 0
 142 3 82 3 38 0 c 1
 38 53 l 1
 68 53 l 2
 97 53 99 53 125 55 c 0
 151 58 153 59 153 78 c 2
 153 633 l 1
 38 633 l 1
 38 686 l 1
 284 686 l 2
 307 686 310 685 321 672 c 2
 738 214 l 1
 738 608 l 2
 738 627 736 628 709 630 c 0
 690 632 672 633 653 633 c 2
 623 633 l 1
 623 686 l 1
 670 683 725 683 770 683 c 0
 811 683 871 683 915 686 c 1
 915 633 l 1
 885 633 l 2
EndSplineSet
EndChar

StartChar: Xi
Encoding: 926 926 108
Width: 675
Flags: MW
HStem: -5 86 591 86
VStem: 46 47 352 125 550 47
LayerCount: 2
Fore
SplineSet
580 -106 m 1
 576 -32 562 -20 548 -14 c 0
 531 -8 421 -6 355 -6 c 2
 50 -6 l 1
 50 84 l 1
 122 114 201 145 266 179 c 0
 323 210 370 257 370 288 c 0
 370 307 333 332 268 332 c 0
 242 332 221 328 199 321 c 0
 176 314 152 304 118 289 c 1
 107 301 104 304 100 316 c 0
 96 324 95 340 98 350 c 1
 421 586 l 1
 326 586 l 2
 260 586 151 584 134 577 c 0
 120 572 106 560 102 485 c 1
 45 485 l 1
 55 677 l 1
 611 677 l 1
 611 626 l 1
 316 409 l 1
 318 406 l 1
 337 411 362 417 388 417 c 0
 444 417 509 390 509 317 c 0
 509 219 321 126 231 86 c 1
 626 86 l 1
 636 -106 l 1
 580 -106 l 1
EndSplineSet
Substitution2: "'salt' Stylistic Alternatives lookup 0-1" Xi.alt
EndChar

StartChar: Omicron
Encoding: 927 927 109
Width: 916
Flags: MW
HStem: -11 42 657 40
VStem: 64 153 646 153
LayerCount: 2
Fore
SplineSet
457 -11 m 0
 215 -11 65 132 65 339 c 0
 65 549 213 697 458 697 c 0
 695 697 850 555 850 339 c 0
 850 134 702 -11 457 -11 c 0
638 560 m 0
 596 624 524 651 457 651 c 0
 395 651 325 627 282 567 c 0
 236 501 233 417 233 354 c 0
 233 269 241 199 276 138 c 0
 319 64 395 37 457 37 c 0
 513 37 587 58 633 129 c 0
 677 197 682 284 682 354 c 0
 682 421 678 497 638 560 c 0
EndSplineSet
EndChar

StartChar: Pi
Encoding: 928 928 110
Width: 954
Flags: MW
HStem: 0 47 633 47
VStem: 147 142 610 142
LayerCount: 2
Fore
SplineSet
722 3 m 0
 676 3 573 3 529 0 c 1
 529 53 l 1
 643 53 l 1
 643 627 l 1
 310 627 l 1
 310 53 l 1
 424 53 l 1
 424 0 l 1
 380 3 277 3 231 3 c 0
 186 3 82 3 38 0 c 1
 38 53 l 1
 153 53 l 1
 153 627 l 1
 38 627 l 1
 38 680 l 1
 915 680 l 1
 915 627 l 1
 800 627 l 1
 800 53 l 1
 915 53 l 1
 915 0 l 1
 871 3 767 3 722 3 c 0
EndSplineSet
EndChar

StartChar: Rho
Encoding: 929 929 111
Width: 833
Flags: MW
HStem: 3 44 302 41 639 47
VStem: 147 140 568 153
LayerCount: 2
Fore
SplineSet
494 299 m 2
 354 299 l 1
 354 346 l 1
 442 346 l 2
 599 346 599 421 599 490 c 0
 599 560 599 633 443 633 c 2
 307 633 l 1
 307 53 l 1
 424 53 l 1
 424 0 l 1
 380 3 277 3 231 3 c 0
 186 3 82 3 38 0 c 1
 38 53 l 1
 153 53 l 1
 153 633 l 1
 38 633 l 1
 38 686 l 1
 483 686 l 2
 660 686 767 601 767 490 c 0
 767 371 642 299 494 299 c 2
EndSplineSet
EndChar

StartChar: Sigma
Encoding: 931 931 112
Width: 881
Flags: MW
HStem: -11 47 650 47
VStem: 64 153 717 49
LayerCount: 2
Fore
SplineSet
783 422 m 0
 757 422 755 425 752 446 c 0
 729 570 629 644 516 644 c 0
 235 644 233 427 233 343 c 0
 233 259 239 42 519 42 c 0
 621 42 701 96 755 170 c 0
 765 184 780 188 792 181 c 0
 802 175 812 163 800 142 c 0
 750 55 635 -11 494 -11 c 0
 229 -11 65 138 65 343 c 0
 65 548 229 697 494 697 c 0
 567 697 716 668 815 568 c 1
 815 453 l 2
 815 426 813 422 783 422 c 0
EndSplineSet
EndChar

StartChar: Tau
Encoding: 932 932 113
Width: 848
Flags: MW
HStem: 0 47 628 47
VStem: 42 47 329 142 710 47
LayerCount: 2
Fore
SplineSet
750 430 m 1
 739 546 728 622 580 622 c 2
 502 622 l 1
 502 53 l 1
 665 53 l 1
 665 0 l 1
 604 3 486 3 424 3 c 0
 362 3 244 3 183 0 c 1
 183 53 l 1
 346 53 l 1
 346 622 l 1
 267 622 l 2
 117 622 107 545 97 430 c 1
 41 430 l 1
 64 675 l 1
 783 675 l 1
 806 430 l 1
 750 430 l 1
EndSplineSet
EndChar

StartChar: Upsilon
Encoding: 933 933 114
Width: 922
Flags: MW
HStem: 455 117 582 115
VStem: 54 53 366 142 745 74
LayerCount: 2
Fore
SplineSet
463 480 m 1
 509 637 610 697 706 697 c 0
 810 697 871 617 871 552 c 0
 871 517 857 451 772 451 c 0
 719 451 704 488 704 513 c 0
 704 548 731 570 769 573 c 0
 774 573 779 573 783 574 c 0
 785 574 787 575 787 578 c 0
 787 585 764 593 715 593 c 0
 629 593 542 517 542 345 c 2
 542 53 l 1
 685 53 l 1
 685 0 l 1
 635 3 516 3 463 3 c 0
 410 3 292 3 242 0 c 1
 242 53 l 1
 385 53 l 1
 385 345 l 2
 385 360 385 438 342 506 c 0
 297 577 237 577 205 577 c 0
 136 577 120 568 117 549 c 0
 113 528 102 526 86 526 c 0
 71 526 54 527 54 552 c 0
 54 617 116 697 219 697 c 0
 331 697 422 620 463 480 c 1
EndSplineSet
EndChar

StartChar: Phi
Encoding: 934 934 115
Width: 881
Flags: MW
HStem: -97 44 153 37 496 37 737 44
VStem: 64 147 344 131 619 147
LayerCount: 2
Fore
SplineSet
507 151 m 1
 507 -47 l 1
 650 -47 l 1
 650 -100 l 1
 600 -97 485 -97 434 -97 c 0
 382 -97 268 -97 218 -100 c 1
 218 -47 l 1
 361 -47 l 1
 361 151 l 1
 197 162 65 235 65 343 c 0
 65 451 197 524 361 534 c 1
 361 731 l 1
 218 731 l 1
 218 784 l 1
 268 781 383 781 435 781 c 0
 486 781 600 781 650 784 c 1
 650 731 l 1
 507 731 l 1
 507 535 l 1
 778 515 815 393 815 343 c 0
 815 295 780 171 507 151 c 1
507 493 m 1
 507 193 l 1
 636 209 653 272 653 343 c 0
 653 414 636 477 507 493 c 1
361 492 m 1
 235 473 227 400 227 343 c 0
 227 287 235 213 361 194 c 1
 361 492 l 1
EndSplineSet
EndChar

StartChar: Chi
Encoding: 935 935 116
Width: 921
Flags: MW
HStem: 0 47 636 47
VStem: 34 801
LayerCount: 2
Fore
SplineSet
713 3 m 0
 666 3 565 3 518 0 c 1
 518 53 l 1
 603 53 l 1
 425 283 l 1
 253 70 l 1
 248 64 l 1
 247 62 l 1
 282 53 321 53 342 53 c 1
 342 0 l 1
 301 3 219 3 178 3 c 0
 133 3 81 3 33 0 c 1
 33 53 l 1
 67 53 l 2
 88 53 110 54 131 55 c 0
 163 58 165 60 174 71 c 2
 387 332 l 1
 154 633 l 1
 49 633 l 1
 49 686 l 1
 89 683 181 683 224 683 c 0
 271 683 372 683 419 686 c 1
 419 633 l 1
 334 633 l 1
 479 446 l 1
 616 616 l 1
 621 622 l 1
 623 624 l 1
 587 633 548 633 527 633 c 1
 527 686 l 1
 568 683 650 683 691 683 c 0
 737 683 788 683 836 686 c 1
 836 633 l 1
 802 633 l 2
 773 633 767 633 741 630 c 0
 706 627 705 627 694 614 c 2
 517 396 l 1
 783 53 l 1
 888 53 l 1
 888 0 l 1
 848 3 756 3 713 3 c 0
EndSplineSet
EndChar

StartChar: Psi
Encoding: 936 936 117
Width: 948
Flags: MW
HStem: -97 44 153 41 511 36 738 44
VStem: 126 131 376 131 636 131
LayerCount: 2
Fore
SplineSet
873 511 m 0
 868 509 863 508 858 507 c 0
 818 501 816 443 816 397 c 0
 816 384 812 288 738 223 c 0
 701 190 638 160 541 152 c 1
 541 -47 l 1
 684 -47 l 1
 684 -100 l 1
 634 -97 519 -97 467 -97 c 0
 416 -97 302 -97 252 -100 c 1
 252 -47 l 1
 395 -47 l 1
 395 152 l 1
 321 159 248 180 195 234 c 0
 131 298 130 388 130 422 c 0
 130 427 130 500 92 507 c 0
 80 508 65 510 65 528 c 0
 65 548 84 549 102 549 c 2
 178 549 l 2
 244 549 275 504 276 416 c 0
 276 353 280 235 395 200 c 1
 395 732 l 1
 252 732 l 1
 252 785 l 1
 302 782 417 782 469 782 c 0
 520 782 634 782 684 785 c 1
 684 732 l 1
 541 732 l 1
 541 199 l 1
 763 260 588 549 768 549 c 2
 845 549 l 2
 862 549 882 548 882 528 c 0
 882 519 878 514 873 511 c 0
EndSplineSet
EndChar

StartChar: Iotadieresis
Encoding: 938 938 118
Width: 463
Flags: MW
HStem: 0 47 639 44 731 155
VStem: 23 155 261 155
LayerCount: 2
Fore
SplineSet
360 726 m 0
 309 726 273 763 273 806 c 0
 273 850 311 886 358 886 c 0
 403 886 444 853 444 807 c 0
 444 762 407 726 360 726 c 0
107 726 m 0
 55 726 21 764 21 806 c 0
 21 850 59 886 106 886 c 0
 151 886 192 853 192 807 c 0
 192 762 153 726 107 726 c 0
231 3 m 0
 182 3 79 3 32 0 c 1
 32 53 l 1
 153 53 l 1
 153 635 l 1
 32 635 l 1
 32 688 l 1
 79 684 182 684 231 684 c 0
 280 684 384 684 430 688 c 1
 430 635 l 1
 310 635 l 1
 310 53 l 1
 430 53 l 1
 430 0 l 1
 384 3 280 3 231 3 c 0
EndSplineSet
EndChar

StartChar: Upsilondieresis
Encoding: 939 939 119
Width: 897
Flags: MW
HStem: 455 117 582 115 731 155
VStem: 54 53 366 142 521 155 745 74
LayerCount: 2
Fore
SplineSet
636 726 m 0
 584 726 549 763 549 806 c 0
 549 850 586 886 634 886 c 0
 679 886 720 853 720 807 c 0
 720 762 682 726 636 726 c 0
319 726 m 0
 267 726 233 764 233 806 c 0
 233 850 271 886 318 886 c 0
 363 886 404 853 404 807 c 0
 404 762 365 726 319 726 c 0
463 481 m 1
 509 638 610 698 706 698 c 0
 810 698 871 618 871 553 c 0
 871 518 857 452 772 452 c 0
 719 452 704 489 704 514 c 0
 704 549 731 571 769 574 c 0
 774 574 779 574 783 575 c 0
 785 576 787 576 787 579 c 0
 787 586 764 594 715 594 c 0
 629 594 542 518 542 346 c 2
 542 53 l 1
 685 53 l 1
 685 0 l 1
 635 3 516 3 463 3 c 0
 410 3 292 3 242 0 c 1
 242 53 l 1
 385 53 l 1
 385 346 l 2
 385 361 385 439 342 507 c 0
 297 578 237 578 205 578 c 0
 136 578 120 569 117 550 c 0
 113 529 102 527 86 527 c 0
 71 527 54 527 54 553 c 0
 54 618 116 698 219 698 c 0
 331 698 422 621 463 481 c 1
EndSplineSet
EndChar

StartChar: alphatonos
Encoding: 940 940 120
Width: 558
Flags: MW
HStem: -1 36 78 50 396 36
LayerCount: 2
Fore
SplineSet
369 -1 m 1
 329 76 l 1
 231 58 159 44 76 -13 c 1
 53 -13 27 -6 19 29 c 1
 52 78 95 126 129 173 c 0
 164 220 190 266 190 312 c 0
 190 342 164 391 74 391 c 1
 74 432 l 1
 206 430 l 2
 240 429 253 418 270 390 c 2
 444 96 l 2
 461 66 498 40 546 40 c 1
 546 -1 l 1
 369 -1 l 1
237 245 m 1
 214 211 180 146 163 118 c 1
 183 122 210 125 235 127 c 0
 261 129 285 131 300 132 c 1
 286 159 251 219 237 245 c 1
EndSplineSet
EndChar

StartChar: epsilontonos
Encoding: 941 941 121
Width: 542
Flags: MW
HStem: -6 40 211 31 413 40
VStem: 38 128 310 36
LayerCount: 2
Fore
SplineSet
453 289 m 0
 438 289 429 298 423 309 c 0
 417 320 413 335 407 350 c 0
 395 379 374 408 313 408 c 0
 192 408 181 306 179 245 c 1
 289 252 l 2
 324 254 325 268 325 324 c 1
 370 324 l 1
 370 127 l 1
 325 127 l 1
 325 183 324 198 289 200 c 2
 179 208 l 1
 181 150 195 39 323 39 c 0
 374 39 399 64 415 87 c 0
 423 97 429 108 438 118 c 0
 445 126 453 131 465 127 c 0
 472 125 482 117 482 104 c 0
 482 97 480 92 477 87 c 0
 441 32 394 -6 303 -6 c 0
 138 -6 37 89 37 222 c 0
 37 338 117 453 308 453 c 0
 368 453 432 450 484 372 c 1
 484 327 l 2
 484 298 477 289 453 289 c 0
EndSplineSet
EndChar

StartChar: etatonos
Encoding: 942 942 122
Width: 677
Flags: MW
HStem: 0 36 228 33 409 36
VStem: 103 114 421 114
LayerCount: 2
Fore
SplineSet
501 3 m 0
 449 3 412 1 370 0 c 1
 370 41 l 1
 387 41 l 2
 439 41 443 43 443 61 c 2
 443 225 l 1
 233 225 l 1
 233 61 l 2
 233 43 236 41 289 41 c 2
 306 41 l 1
 306 0 l 1
 256 2 211 3 164 3 c 0
 112 3 74 1 32 0 c 1
 32 41 l 1
 53 41 l 2
 103 41 106 44 106 60 c 2
 106 383 l 2
 106 402 101 404 51 404 c 2
 32 404 l 1
 32 445 l 1
 99 442 138 442 163 442 c 0
 210 442 256 443 306 445 c 1
 306 404 l 1
 291 404 l 2
 234 404 233 401 233 378 c 2
 233 263 l 1
 443 263 l 1
 443 387 l 2
 443 402 438 404 385 404 c 2
 370 404 l 1
 370 445 l 1
 420 443 466 442 513 442 c 0
 538 442 578 442 644 445 c 1
 644 404 l 1
 622 404 l 2
 573 404 570 400 570 385 c 2
 570 61 l 2
 570 43 575 41 623 41 c 2
 644 41 l 1
 644 0 l 1
 595 2 548 3 501 3 c 0
EndSplineSet
EndChar

StartChar: iotatonos
Encoding: 943 943 123
Width: 346
Flags: MW
HStem: 0 36 409 36
VStem: 103 114
LayerCount: 2
Fore
SplineSet
165 3 m 2
 162 3 l 2
 146 3 107 3 32 0 c 1
 32 41 l 1
 54 41 l 2
 85 41 97 43 102 47 c 0
 104 48 105 51 106 55 c 0
 106 59 106 64 106 71 c 2
 106 383 l 2
 106 401 103 404 53 404 c 2
 32 404 l 1
 32 445 l 1
 79 443 121 442 165 442 c 0
 211 442 257 443 306 445 c 1
 306 404 l 1
 286 404 l 2
 237 404 233 401 233 386 c 2
 233 61 l 2
 233 43 238 41 286 41 c 2
 306 41 l 1
 306 0 l 1
 257 2 211 3 165 3 c 2
EndSplineSet
EndChar

StartChar: upsilondieresistonos
Encoding: 944 944 124
Width: 704
Flags: MW
HStem: -192 33 219 64 331 96 484 129
VStem: 269 114 552 63
LayerCount: 2
Fore
SplineSet
430 479 m 0
 391 479 360 511 360 546 c 0
 360 578 387 613 431 613 c 0
 471 613 501 581 501 546 c 0
 501 514 476 479 430 479 c 0
257 479 m 0
 216 479 187 511 187 546 c 0
 187 578 212 613 258 613 c 0
 297 613 326 581 326 546 c 0
 326 514 301 479 257 479 c 0
566 216 m 0
 534 216 525 238 525 251 c 0
 525 265 535 285 566 285 c 0
 579 285 582 291 582 295 c 0
 582 306 562 327 528 327 c 0
 418 327 409 196 409 144 c 2
 409 -153 l 1
 499 -153 l 1
 499 -195 l 1
 443 -193 394 -192 341 -192 c 2
 335 -192 l 2
 316 -192 269 -192 188 -195 c 1
 188 -153 l 1
 282 -153 l 1
 282 143 l 2
 282 230 258 327 165 327 c 0
 134 327 120 324 112 320 c 0
 105 316 104 309 100 303 c 0
 96 295 84 289 73 289 c 0
 60 289 47 298 47 316 c 0
 47 361 89 428 173 428 c 0
 282 428 326 335 346 268 c 1
 367 343 420 428 522 428 c 0
 624 428 655 346 655 305 c 0
 655 270 631 216 566 216 c 0
EndSplineSet
Substitution2: "'salt' Stylistic Alternatives lookup 0-1" upsilondieresistonos.alt
EndChar

StartChar: alpha
Encoding: 945 945 125
Width: 558
Flags: MW
HStem: -1 36 78 50 396 36
LayerCount: 2
Fore
SplineSet
369 -1 m 1
 329 76 l 1
 231 58 159 44 76 -13 c 1
 53 -13 27 -6 19 29 c 1
 52 78 95 126 129 173 c 0
 164 220 190 266 190 312 c 0
 190 342 164 391 74 391 c 1
 74 432 l 1
 206 430 l 2
 240 429 253 418 270 390 c 2
 444 96 l 2
 461 66 498 40 546 40 c 1
 546 -1 l 1
 369 -1 l 1
237 245 m 1
 214 211 180 146 163 118 c 1
 183 122 210 125 235 127 c 0
 261 129 285 131 300 132 c 1
 286 159 251 219 237 245 c 1
EndSplineSet
EndChar

StartChar: beta
Encoding: 946 946 126
Width: 546
Flags: MW
HStem: -14 46 214 28 403 41
VStem: 82 114 370 97
LayerCount: 2
Fore
SplineSet
253 -14 m 0
 157 -14 84 18 84 65 c 2
 84 362 l 2
 84 373 83 409 57 409 c 2
 21 409 l 1
 21 450 l 1
 88 447 148 448 211 451 c 1
 211 409 l 1
 242 431 277 444 324 444 c 0
 359 444 498 440 498 348 c 0
 498 295 443 256 395 238 c 1
 395 234 l 1
 454 223 525 191 525 126 c 0
 525 29 397 -14 253 -14 c 0
249 211 m 1
 230 243 l 1
 351 277 389 326 389 348 c 0
 389 383 344 398 306 398 c 0
 276 398 211 379 211 325 c 2
 211 61 l 2
 211 52 232 37 266 37 c 0
 300 37 405 56 405 127 c 0
 405 169 313 211 249 211 c 1
EndSplineSet
EndChar

StartChar: gamma
Encoding: 947 947 127
Width: 526
Flags: MW
HStem: 0 36 409 36
VStem: 103 114 419 48
LayerCount: 2
Fore
SplineSet
441 266 m 1
 434 358 423 404 302 404 c 2
 273 404 l 2
 249 404 240 402 236 399 c 0
 232 395 233 382 233 377 c 2
 233 61 l 2
 233 42 236 41 302 41 c 2
 324 41 l 1
 324 0 l 1
 270 2 220 3 170 3 c 0
 143 3 103 3 32 0 c 1
 32 41 l 1
 53 41 l 2
 102 41 106 44 106 60 c 2
 106 383 l 2
 106 401 102 404 52 404 c 2
 32 404 l 1
 32 445 l 1
 484 445 l 1
 498 266 l 1
 441 266 l 1
EndSplineSet
EndChar

StartChar: delta
Encoding: 948 948 128
Width: 589
Flags: MW
HStem: 0 42 454 36
LayerCount: 2
Fore
SplineSet
7 0 m 1
 7 41 l 1
 49 41 54 43 63 55 c 0
 120 126 150 174 165 197 c 0
 179 220 197 247 237 315 c 1
 198 425 152 449 81 449 c 1
 81 490 l 1
 214 488 l 2
 248 488 263 476 278 448 c 2
 493 56 l 2
 500 42 521 34 578 34 c 1
 578 0 l 1
 7 0 l 1
272 240 m 1
 218 165 167 75 162 58 c 1
 179 53 231 47 270 47 c 0
 304 47 342 53 370 62 c 1
 348 103 301 195 272 240 c 1
EndSplineSet
EndChar

StartChar: epsilon
Encoding: 949 949 129
Width: 542
Flags: MW
HStem: -6 40 211 31 413 40
VStem: 38 128 310 36
LayerCount: 2
Fore
SplineSet
453 289 m 0
 438 289 429 298 423 309 c 0
 417 320 413 335 407 350 c 0
 395 379 374 408 313 408 c 0
 192 408 181 306 179 245 c 1
 289 252 l 2
 324 254 325 268 325 324 c 1
 370 324 l 1
 370 127 l 1
 325 127 l 1
 325 183 324 198 289 200 c 2
 179 208 l 1
 181 150 195 39 323 39 c 0
 374 39 399 64 415 87 c 0
 423 97 429 108 438 118 c 0
 445 126 453 131 465 127 c 0
 472 125 482 117 482 104 c 0
 482 97 480 92 477 87 c 0
 441 32 394 -6 303 -6 c 0
 138 -6 37 89 37 222 c 0
 37 338 117 453 308 453 c 0
 368 453 432 450 484 372 c 1
 484 327 l 2
 484 298 477 289 453 289 c 0
EndSplineSet
EndChar

StartChar: zeta
Encoding: 950 950 130
Width: 444
Flags: MW
HStem: 383 47
VStem: 25 47 82 105 251 91
LayerCount: 2
Fore
SplineSet
201 167 m 0
 201 166 203 166 205 166 c 0
 210 165 215 164 219 163 c 0
 238 159 261 157 278 153 c 0
 316 146 366 124 366 85 c 0
 366 15 294 -38 236 -70 c 1
 216 -32 l 1
 262 -11 263 16 263 36 c 0
 263 40 262 53 251 57 c 0
 239 61 224 64 206 68 c 0
 161 76 84 86 84 142 c 0
 84 221 209 332 274 378 c 1
 175 378 l 2
 145 378 107 376 101 373 c 0
 95 370 93 368 90 362 c 0
 85 353 81 336 79 302 c 1
 23 302 l 1
 32 430 l 1
 413 430 l 1
 413 389 l 1
 333 355 201 244 201 167 c 0
EndSplineSet
EndChar

StartChar: eta
Encoding: 951 951 131
Width: 677
Flags: MW
HStem: 0 36 228 33 409 36
VStem: 103 114 421 114
LayerCount: 2
Fore
SplineSet
501 3 m 0
 449 3 412 1 370 0 c 1
 370 41 l 1
 387 41 l 2
 439 41 443 43 443 61 c 2
 443 225 l 1
 233 225 l 1
 233 61 l 2
 233 43 236 41 289 41 c 2
 306 41 l 1
 306 0 l 1
 256 2 211 3 164 3 c 0
 112 3 74 1 32 0 c 1
 32 41 l 1
 53 41 l 2
 103 41 106 44 106 60 c 2
 106 383 l 2
 106 402 101 404 51 404 c 2
 32 404 l 1
 32 445 l 1
 99 442 138 442 163 442 c 0
 210 442 256 443 306 445 c 1
 306 404 l 1
 291 404 l 2
 234 404 233 401 233 378 c 2
 233 263 l 1
 443 263 l 1
 443 387 l 2
 443 402 438 404 385 404 c 2
 370 404 l 1
 370 445 l 1
 420 443 466 442 513 442 c 0
 538 442 578 442 644 445 c 1
 644 404 l 1
 622 404 l 2
 573 404 570 400 570 385 c 2
 570 61 l 2
 570 43 575 41 623 41 c 2
 644 41 l 1
 644 0 l 1
 595 2 548 3 501 3 c 0
EndSplineSet
EndChar

StartChar: theta
Encoding: 952 952 132
Width: 542
Flags: MW
HStem: -11 39 228 33 419 36
VStem: 31 117 361 117
LayerCount: 2
Fore
SplineSet
269 -11 m 0
 128 -11 30 77 30 218 c 0
 30 362 126 455 270 455 c 0
 413 455 510 362 510 219 c 0
 510 74 410 -11 269 -11 c 0
357 359 m 0
 331 405 292 414 270 414 c 0
 234 414 197 393 177 345 c 0
 166 319 163 291 161 263 c 1
 378 263 l 1
 376 296 372 330 357 359 c 0
379 225 m 1
 160 225 l 1
 160 208 l 2
 160 170 162 131 178 96 c 0
 191 67 221 33 269 33 c 0
 309 33 354 56 371 122 c 0
 378 151 379 181 379 211 c 2
 379 225 l 1
EndSplineSet
EndChar

StartChar: iota
Encoding: 953 953 133
Width: 346
Flags: MW
HStem: 0 36 409 36
VStem: 103 114
LayerCount: 2
Fore
SplineSet
165 3 m 2
 162 3 l 2
 146 3 107 3 32 0 c 1
 32 41 l 1
 54 41 l 2
 85 41 97 43 102 47 c 0
 104 48 105 51 106 55 c 0
 106 59 106 64 106 71 c 2
 106 383 l 2
 106 401 103 404 53 404 c 2
 32 404 l 1
 32 445 l 1
 79 443 121 442 165 442 c 0
 211 442 257 443 306 445 c 1
 306 404 l 1
 286 404 l 2
 237 404 233 401 233 386 c 2
 233 61 l 2
 233 43 238 41 286 41 c 2
 306 41 l 1
 306 0 l 1
 257 2 211 3 165 3 c 2
EndSplineSet
EndChar

StartChar: kappa
Encoding: 954 954 134
Width: 677
Flags: MW
HStem: 0 36 409 36
VStem: 103 108
LayerCount: 2
Fore
SplineSet
543 3 m 0
 499 3 457 2 410 0 c 1
 410 41 l 1
 416 41 l 2
 427 41 441 42 441 52 c 0
 441 57 420 80 389 112 c 0
 359 143 322 181 291 216 c 1
 227 174 l 1
 227 57 l 2
 227 43 232 41 285 41 c 2
 301 41 l 1
 301 0 l 1
 260 1 222 3 171 3 c 0
 125 3 81 2 32 0 c 1
 32 41 l 1
 53 41 l 2
 103 41 106 44 106 60 c 2
 106 383 l 2
 106 401 102 404 52 404 c 2
 32 404 l 1
 32 445 l 1
 81 443 127 442 173 442 c 0
 215 442 256 443 301 445 c 1
 301 404 l 1
 285 404 l 2
 229 404 227 400 227 385 c 2
 227 240 l 1
 431 374 l 1
 447 386 l 1
 451 390 l 1
 452 394 l 2
 450 401 443 402 434 404 c 1
 434 445 l 1
 473 443 510 442 546 442 c 0
 574 442 592 443 632 445 c 1
 632 404 l 1
 592 403 572 398 540 380 c 0
 507 362 463 330 380 275 c 1
 400 256 423 230 572 74 c 0
 603 41 610 41 659 41 c 1
 659 0 l 1
 619 2 581 3 543 3 c 0
EndSplineSet
EndChar

StartChar: lambda
Encoding: 955 955 135
Width: 587
Flags: MW
HStem: -3 36 454 36
LayerCount: 2
Fore
SplineSet
443 0 m 0
 400 0 355 -1 308 -3 c 1
 308 38 l 1
 343 38 363 36 363 47 c 0
 363 51 362 54 356 64 c 2
 254 312 l 1
 238 272 161 81 152 58 c 0
 151 56 149 49 149 47 c 0
 149 36 175 38 210 38 c 1
 210 -3 l 1
 163 -1 154 0 110 0 c 0
 70 0 62 -1 19 -3 c 1
 19 38 l 1
 32 38 l 2
 60 38 72 39 80 43 c 0
 89 48 94 63 98 71 c 2
 221 363 l 2
 256 446 199 448 154 448 c 2
 146 448 l 1
 146 490 l 1
 267 490 l 2
 305 490 312 474 324 447 c 2
 487 71 l 2
 491 63 496 48 505 43 c 0
 513 39 525 38 553 38 c 2
 566 38 l 1
 566 -3 l 1
 524 -1 483 0 443 0 c 0
EndSplineSet
EndChar

StartChar: nu
Encoding: 957 957 136
Width: 605
Flags: MW
HStem: 0 36 410 35
VStem: 99 53 413 54
LayerCount: 2
Fore
SplineSet
498 378 m 2
 498 31 l 2
 498 12 491 0 466 0 c 0
 445 0 436 10 428 20 c 2
 164 350 l 1
 164 68 l 2
 164 52 169 41 245 41 c 1
 245 0 l 1
 206 2 168 3 132 3 c 0
 97 3 61 2 21 0 c 1
 21 41 l 1
 98 41 102 51 102 68 c 2
 102 404 l 1
 21 405 l 1
 21 445 l 1
 202 445 l 2
 217 445 228 444 240 429 c 2
 435 187 l 1
 435 368 l 2
 435 393 434 405 355 405 c 1
 355 445 l 1
 394 443 430 443 466 443 c 0
 502 443 539 443 579 445 c 1
 579 405 l 1
 504 405 498 394 498 378 c 2
EndSplineSet
EndChar

StartChar: xi
Encoding: 958 958 137
Width: 426
Flags: MW
HStem: -5 48 383 48
VStem: 23 47 199 117 333 47
LayerCount: 2
Fore
SplineSet
350 -74 m 1
 348 -60 349 -49 347 -40 c 0
 341 -14 312 -9 288 -7 c 0
 267 -6 242 -6 209 -6 c 2
 31 -6 l 1
 31 37 l 1
 79 56 123 78 156 102 c 0
 189 127 208 160 208 172 c 0
 208 187 184 198 162 198 c 0
 130 198 100 182 71 171 c 1
 71 171 60 180 57 191 c 0
 54 204 56 215 56 215 c 1
 265 378 l 1
 218 378 l 2
 186 378 160 378 139 376 c 0
 119 374 105 371 96 365 c 0
 87 359 83 349 81 337 c 0
 79 325 79 312 77 298 c 1
 21 298 l 1
 34 431 l 1
 391 431 l 1
 391 390 l 1
 242 272 l 1
 288 269 338 249 338 203 c 0
 338 136 256 79 195 48 c 1
 398 48 l 1
 406 -74 l 1
 350 -74 l 1
EndSplineSet
Substitution2: "'salt' Stylistic Alternatives lookup 0-1" xi.alt
EndChar

StartChar: omicron
Encoding: 959 959 138
Width: 609
Flags: MW
HStem: -6 40 417 36
VStem: 32 128 414 128
LayerCount: 2
Fore
SplineSet
304 -6 m 0
 126 -6 31 94 31 218 c 0
 31 351 129 453 304 453 c 0
 479 453 578 352 578 218 c 0
 578 95 484 -6 304 -6 c 0
433 301 m 0
 430 325 425 346 414 363 c 0
 391 396 348 412 304 412 c 0
 253 412 210 391 190 356 c 0
 172 322 173 267 173 229 c 0
 173 142 173 39 304 39 c 0
 435 39 436 142 436 229 c 0
 436 253 436 278 433 301 c 0
EndSplineSet
EndChar

StartChar: pi
Encoding: 960 960 139
Width: 677
Flags: MW
HStem: 0 36 409 36
VStem: 103 114 421 114
LayerCount: 2
Fore
SplineSet
501 3 m 0
 449 3 412 1 370 0 c 1
 370 41 l 1
 384 41 l 2
 416 41 431 42 437 46 c 0
 443 48 443 53 443 58 c 0
 443 60 443 63 443 66 c 2
 443 386 l 2
 443 401 441 404 403 404 c 2
 265 404 l 2
 235 404 233 398 233 384 c 2
 233 70 l 2
 233 64 233 58 233 54 c 0
 234 50 235 48 237 47 c 0
 242 43 254 41 284 41 c 2
 306 41 l 1
 306 0 l 1
 256 2 211 3 164 3 c 0
 112 3 74 1 32 0 c 1
 32 41 l 1
 53 41 l 2
 103 41 106 44 106 60 c 2
 106 383 l 2
 106 402 101 404 51 404 c 2
 32 404 l 1
 32 445 l 1
 644 445 l 1
 644 404 l 1
 622 404 l 2
 573 404 570 400 570 385 c 2
 570 62 l 2
 570 44 575 41 623 41 c 2
 644 41 l 1
 644 0 l 1
 595 2 548 3 501 3 c 0
EndSplineSet
EndChar

StartChar: rho
Encoding: 961 961 140
Width: 601
Flags: MW
HStem: 0 36 184 33 405 40
VStem: 103 114 408 128
LayerCount: 2
Fore
SplineSet
344 182 m 2
 290 182 l 1
 290 220 l 1
 310 220 l 2
 415 220 429 279 429 310 c 0
 429 339 416 400 312 400 c 2
 248 400 l 2
 236 400 233 399 233 383 c 2
 233 217 l 1
 233 66 l 2
 233 43 234 41 291 41 c 2
 306 41 l 1
 306 0 l 1
 256 2 224 0 173 0 c 2
 33 0 l 1
 33 41 l 1
 48 41 l 2
 106 41 106 43 106 66 c 2
 106 385 l 2
 106 401 103 404 53 404 c 2
 32 404 l 1
 32 445 l 1
 341 445 l 2
 357 445 374 445 390 444 c 0
 496 436 571 385 571 310 c 0
 571 257 530 182 344 182 c 2
EndSplineSet
EndChar

StartChar: sigma1
Encoding: 962 962 141
Width: 542
Flags: MW
HStem: -6 40 413 40
VStem: 38 128
LayerCount: 2
Fore
SplineSet
453 289 m 0
 438 289 429 298 423 309 c 0
 417 320 413 335 407 350 c 0
 395 379 374 408 313 408 c 0
 180 408 179 283 179 227 c 0
 179 181 180 39 323 39 c 0
 374 39 399 64 415 87 c 0
 423 97 429 108 438 118 c 0
 445 126 453 131 465 127 c 0
 472 125 482 117 482 104 c 0
 482 97 480 92 477 87 c 0
 441 32 394 -6 303 -6 c 0
 138 -6 37 89 37 222 c 0
 37 338 117 453 308 453 c 0
 368 453 432 450 484 372 c 1
 484 327 l 2
 484 298 477 289 453 289 c 0
EndSplineSet
EndChar

StartChar: sigma
Encoding: 963 963 142
Width: 542
Flags: MW
HStem: -6 40 413 40
VStem: 38 128
LayerCount: 2
Fore
SplineSet
453 289 m 0
 438 289 429 298 423 309 c 0
 417 320 413 335 407 350 c 0
 395 379 374 408 313 408 c 0
 180 408 179 283 179 227 c 0
 179 181 180 39 323 39 c 0
 374 39 399 64 415 87 c 0
 423 97 429 108 438 118 c 0
 445 126 453 131 465 127 c 0
 472 125 482 117 482 104 c 0
 482 97 480 92 477 87 c 0
 441 32 394 -6 303 -6 c 0
 138 -6 37 89 37 222 c 0
 37 338 117 453 308 453 c 0
 368 453 432 450 484 372 c 1
 484 327 l 2
 484 298 477 289 453 289 c 0
EndSplineSet
EndChar

StartChar: tau
Encoding: 964 964 143
Width: 577
Flags: MW
HStem: 0 36 408 37
VStem: 28 48 214 114 467 48
LayerCount: 2
Fore
SplineSet
492 266 m 1
 490 296 488 337 472 364 c 0
 458 388 432 403 381 403 c 0
 351 403 351 398 351 384 c 2
 351 61 l 2
 351 42 354 41 430 41 c 2
 456 41 l 1
 456 0 l 1
 395 2 337 3 280 3 c 0
 217 3 170 1 120 0 c 1
 120 41 l 1
 145 41 l 2
 221 41 224 41 224 61 c 2
 224 383 l 2
 224 399 222 403 194 403 c 0
 142 403 117 388 103 365 c 0
 87 338 86 296 84 266 c 1
 26 266 l 1
 39 445 l 1
 536 445 l 1
 549 266 l 1
 492 266 l 1
EndSplineSet
EndChar

StartChar: upsilon
Encoding: 965 965 144
Width: 692
Flags: MW
HStem: -192 33 219 64 331 96
VStem: 269 114 552 63
LayerCount: 2
Fore
SplineSet
566 215 m 0
 534 215 525 237 525 250 c 0
 525 264 535 284 566 284 c 0
 579 284 582 290 582 294 c 0
 582 305 562 326 528 326 c 0
 418 326 409 195 409 144 c 2
 409 -153 l 1
 499 -153 l 1
 499 -195 l 1
 443 -193 394 -192 341 -192 c 2
 335 -192 l 2
 316 -192 269 -192 188 -195 c 1
 188 -153 l 1
 282 -153 l 1
 282 143 l 2
 282 230 258 326 165 326 c 0
 134 326 120 323 112 319 c 0
 105 315 104 308 100 302 c 0
 96 293 84 288 73 288 c 0
 60 288 47 296 47 315 c 0
 47 360 89 427 173 427 c 0
 282 427 326 334 346 267 c 1
 367 342 420 427 522 427 c 0
 624 427 655 345 655 304 c 0
 655 269 631 215 566 215 c 0
EndSplineSet
Substitution2: "'salt' Stylistic Alternatives lookup 0-1" upsilon.alt
EndChar

StartChar: phi
Encoding: 966 966 145
Width: 655
Flags: MW
HStem: 0 36 82 37 331 36 395 36
VStem: 34 115 265 88 469 115
LayerCount: 2
Fore
SplineSet
555 118 m 0
 501 89 437 84 376 81 c 1
 376 58 l 2
 376 42 379 41 422 41 c 2
 461 41 l 1
 461 0 l 1
 413 2 371 3 326 3 c 0
 284 3 242 2 194 0 c 1
 194 41 l 1
 212 41 l 2
 248 41 265 42 273 44 c 0
 278 46 279 48 279 52 c 0
 279 54 279 56 279 58 c 2
 279 81 l 1
 235 83 191 86 149 98 c 0
 82 117 33 156 33 224 c 0
 33 262 51 298 85 322 c 0
 134 357 218 366 279 368 c 1
 279 370 l 2
 279 387 279 390 250 390 c 2
 194 390 l 1
 194 431 l 1
 242 429 284 429 326 429 c 0
 371 429 413 429 461 431 c 1
 461 390 l 1
 409 390 l 2
 378 390 376 387 376 368 c 1
 472 365 562 350 603 289 c 0
 616 269 622 247 622 224 c 0
 622 160 572 127 555 118 c 0
377 326 m 1
 377 123 l 1
 472 129 494 171 494 226 c 0
 494 279 469 321 377 326 c 1
278 326 m 1
 204 322 161 294 161 225 c 0
 161 170 183 129 278 123 c 1
 278 326 l 1
EndSplineSet
EndChar

StartChar: chi
Encoding: 967 967 146
Width: 643
Flags: MW
HStem: 0 36 409 36
LayerCount: 2
Fore
SplineSet
372 245 m 1
 533 67 l 1
 541 59 l 2
 546 53 551 48 558 46 c 0
 567 42 582 41 613 41 c 2
 623 41 l 1
 623 0 l 1
 582 2 545 3 507 3 c 0
 463 3 420 2 373 0 c 1
 373 41 l 1
 403 42 411 44 411 49 c 0
 411 50 410 53 393 71 c 0
 378 88 350 118 301 172 c 1
 262 131 235 104 218 87 c 0
 201 68 195 61 195 57 c 0
 195 53 199 43 233 41 c 1
 233 0 l 1
 194 2 158 3 122 3 c 0
 89 3 56 2 20 0 c 1
 20 41 l 1
 66 42 89 46 103 53 c 0
 113 57 120 63 127 70 c 2
 133 77 l 1
 264 213 l 1
 114 379 l 2
 93 403 90 404 43 404 c 2
 25 404 l 1
 25 445 l 1
 68 443 106 442 145 442 c 0
 188 442 230 443 276 445 c 1
 276 404 l 1
 247 401 l 1
 235 397 l 1
 239 392 245 385 257 372 c 0
 271 357 294 331 335 287 c 1
 371 326 394 349 408 363 c 0
 422 378 426 383 426 388 c 0
 426 400 404 403 389 404 c 1
 389 445 l 1
 428 443 465 442 501 442 c 0
 534 442 567 443 602 445 c 1
 602 404 l 1
 560 403 537 399 522 393 c 0
 508 387 500 380 490 369 c 2
 372 245 l 1
EndSplineSet
EndChar

StartChar: psi
Encoding: 968 968 147
Width: 644
Flags: MW
HStem: 0 36 286 52 409 36
VStem: 247 114
LayerCount: 2
Fore
SplineSet
604 282 m 0
 571 273 563 265 540 215 c 0
 513 156 454 118 386 103 c 1
 386 61 l 2
 386 43 391 41 439 41 c 2
 459 41 l 1
 459 0 l 1
 410 2 364 3 318 3 c 2
 315 3 l 2
 299 3 260 3 184 0 c 1
 184 41 l 1
 207 41 l 2
 237 41 250 43 255 47 c 0
 257 48 258 51 259 55 c 0
 259 59 259 64 259 71 c 2
 259 103 l 1
 190 118 131 156 104 215 c 0
 81 265 73 273 40 282 c 0
 24 287 22 302 22 308 c 0
 22 328 45 339 71 339 c 2
 85 339 l 2
 131 339 172 299 192 263 c 0
 211 227 224 166 259 141 c 1
 259 383 l 2
 259 401 255 404 206 404 c 2
 184 404 l 1
 184 445 l 1
 231 443 274 442 318 442 c 0
 364 442 410 443 459 445 c 1
 459 404 l 1
 439 404 l 2
 389 404 386 401 386 386 c 2
 386 141 l 1
 421 166 434 227 453 263 c 0
 472 299 513 339 560 339 c 2
 573 339 l 2
 599 339 622 328 622 308 c 0
 622 302 620 287 604 282 c 0
EndSplineSet
EndChar

StartChar: omega
Encoding: 969 969 148
Width: 836
Flags: MW
HStem: -23 62 305 37 385 47
VStem: 33 117 338 101 627 117
LayerCount: 2
Fore
SplineSet
568 -22 m 0
 531 -22 457 -13 408 51 c 1
 373 -13 294 -23 255 -23 c 0
 132 -23 32 75 32 204 c 0
 32 345 127 432 246 432 c 0
 253 432 277 431 277 404 c 0
 277 380 255 380 241 380 c 0
 205 380 162 347 162 205 c 0
 162 94 210 44 262 44 c 0
 315 44 355 76 355 94 c 2
 355 277 l 2
 355 298 347 300 303 301 c 1
 303 343 l 1
 345 341 372 339 417 339 c 0
 443 339 468 340 519 343 c 1
 519 301 l 1
 475 300 469 298 469 277 c 2
 469 94 l 2
 469 84 470 84 477 77 c 0
 500 55 532 44 562 44 c 0
 595 44 661 66 661 205 c 0
 661 348 619 380 583 380 c 0
 569 380 547 380 547 404 c 0
 547 431 570 432 578 432 c 0
 693 432 792 343 792 199 c 0
 792 83 702 -21 568 -22 c 0
EndSplineSet
EndChar

StartChar: iotadieresis
Encoding: 970 970 149
Width: 337
Flags: MW
HStem: 0 36 409 36 484 129
VStem: 11 126 175 127
LayerCount: 2
Fore
SplineSet
252 479 m 0
 213 479 182 511 182 547 c 0
 182 578 209 613 253 613 c 0
 293 613 323 581 323 547 c 0
 323 515 298 479 252 479 c 0
78 479 m 0
 38 479 8 512 8 547 c 0
 8 578 34 613 79 613 c 0
 119 613 148 581 148 547 c 0
 148 515 123 479 78 479 c 0
165 3 m 2
 162 3 l 2
 146 3 107 3 32 0 c 1
 32 42 l 1
 54 42 l 2
 85 42 97 43 102 47 c 0
 104 49 105 51 106 55 c 0
 106 59 106 64 106 71 c 2
 106 384 l 2
 106 403 103 405 53 405 c 2
 32 405 l 1
 32 447 l 1
 79 445 121 444 165 444 c 0
 211 444 257 445 306 447 c 1
 306 405 l 1
 286 405 l 2
 237 405 233 403 233 387 c 2
 233 61 l 2
 233 43 238 42 286 42 c 2
 306 42 l 1
 306 0 l 1
 257 2 211 3 165 3 c 2
EndSplineSet
EndChar

StartChar: upsilondieresis
Encoding: 971 971 150
Width: 704
Flags: MW
HStem: -192 33 219 64 331 96 484 129
VStem: 269 114 552 63
LayerCount: 2
Fore
SplineSet
430 479 m 0
 391 479 360 511 360 546 c 0
 360 578 387 613 431 613 c 0
 471 613 501 581 501 546 c 0
 501 514 476 479 430 479 c 0
257 479 m 0
 216 479 187 511 187 546 c 0
 187 578 212 613 258 613 c 0
 297 613 326 581 326 546 c 0
 326 514 301 479 257 479 c 0
566 216 m 0
 534 216 525 238 525 251 c 0
 525 265 535 285 566 285 c 0
 579 285 582 291 582 295 c 0
 582 306 562 327 528 327 c 0
 418 327 409 196 409 144 c 2
 409 -153 l 1
 499 -153 l 1
 499 -195 l 1
 443 -193 394 -192 341 -192 c 2
 335 -192 l 2
 316 -192 269 -192 188 -195 c 1
 188 -153 l 1
 282 -153 l 1
 282 143 l 2
 282 230 258 327 165 327 c 0
 134 327 120 324 112 320 c 0
 105 316 104 309 100 303 c 0
 96 295 84 289 73 289 c 0
 60 289 47 298 47 316 c 0
 47 361 89 428 173 428 c 0
 282 428 326 335 346 268 c 1
 367 343 420 428 522 428 c 0
 624 428 655 346 655 305 c 0
 655 270 631 216 566 216 c 0
EndSplineSet
Substitution2: "'salt' Stylistic Alternatives lookup 0-1" upsilondieresis.alt
EndChar

StartChar: omicrontonos
Encoding: 972 972 151
Width: 530
Flags: W
LayerCount: 2
Fore
SplineSet
264 -11 m 0
 138 -11 26 85 26 214 c 0
 26 338 129 448 265 448 c 0
 396 448 502 341 502 214 c 0
 502 87 394 -11 264 -11 c 0
354 337 m 0
 333 369 299 386 264 386 c 0
 197 386 162 335 155 280 c 0
 152 259 153 239 153 222 c 0
 153 183 153 137 173 104 c 0
 194 69 231 54 265 54 c 0
 304 54 339 75 358 110 c 0
 376 145 376 188 376 222 c 0
 376 258 376 304 354 337 c 0
EndSplineSet
EndChar

StartChar: upsilontonos
Encoding: 973 973 152
Width: 692
Flags: MW
HStem: -192 33 219 64 331 96
VStem: 275 98 552 63
LayerCount: 2
Fore
SplineSet
566 215 m 0
 534 215 525 237 525 250 c 0
 525 264 535 284 566 284 c 0
 579 284 582 290 582 294 c 0
 582 305 562 326 528 326 c 0
 418 326 409 195 409 144 c 2
 409 -153 l 1
 499 -153 l 1
 499 -195 l 1
 443 -193 394 -192 341 -192 c 2
 335 -192 l 2
 316 -192 269 -192 188 -195 c 1
 188 -153 l 1
 282 -153 l 1
 282 143 l 2
 282 230 258 326 165 326 c 0
 134 326 120 323 112 319 c 0
 105 315 104 308 100 302 c 0
 96 293 84 288 73 288 c 0
 60 288 47 296 47 315 c 0
 47 360 89 427 173 427 c 0
 282 427 326 334 346 267 c 1
 367 342 420 427 522 427 c 0
 624 427 655 345 655 304 c 0
 655 269 631 215 566 215 c 0
EndSplineSet
Substitution2: "'salt' Stylistic Alternatives lookup 0-1" upsilontonos.alt
EndChar

StartChar: omegatonos
Encoding: 974 974 153
Width: 836
Flags: MW
HStem: -23 62 305 37 385 47
VStem: 33 117 338 101 627 117
LayerCount: 2
Fore
SplineSet
568 -22 m 0
 531 -22 457 -13 408 51 c 1
 373 -13 294 -23 255 -23 c 0
 132 -23 32 75 32 204 c 0
 32 345 127 432 246 432 c 0
 253 432 277 431 277 404 c 0
 277 380 255 380 241 380 c 0
 205 380 162 347 162 205 c 0
 162 94 210 44 262 44 c 0
 315 44 355 76 355 94 c 2
 355 277 l 2
 355 298 347 300 303 301 c 1
 303 343 l 1
 345 341 372 339 417 339 c 0
 443 339 468 340 519 343 c 1
 519 301 l 1
 475 300 469 298 469 277 c 2
 469 94 l 2
 469 84 470 84 477 77 c 0
 500 55 532 44 562 44 c 0
 595 44 661 66 661 205 c 0
 661 348 619 380 583 380 c 0
 569 380 547 380 547 404 c 0
 547 431 570 432 578 432 c 0
 693 432 792 343 792 199 c 0
 792 83 702 -21 568 -22 c 0
EndSplineSet
EndChar

StartChar: periodcentered
Encoding: 183 183 154
Width: 383
Flags: MW
HStem: 289 156<170 213.5 170 216>
VStem: 102 156
LayerCount: 2
Fore
SplineSet
191 289 m 0
 146 289 105 322 105 367 c 0
 105 414 149 445 191 445 c 0
 236 445 277 412 277 367 c 0
 277 328 241 289 191 289 c 0
EndSplineSet
EndChar

StartChar: uni037E
Encoding: 894 894 155
Width: 338
Flags: MW
HStem: -194 21G<133 147> 0 156 288 156
VStem: 81 156
LayerCount: 2
Fore
SplineSet
169 284 m 0
 121 284 83 320 83 364 c 0
 83 408 121 444 169 444 c 0
 216 444 254 408 254 364 c 0
 254 320 216 284 169 284 c 0
138 -194 m 0
 128 -194 114 -183 114 -171 c 0
 114 -165 117 -162 121 -159 c 2
 126 -154 l 2
 158 -126 202 -74 211 8 c 1
 203 4 188 -2 169 -2 c 0
 112 -2 83 37 83 78 c 0
 83 123 117 159 167 159 c 0
 231 159 258 97 258 33 c 0
 258 -102 156 -194 138 -194 c 0
EndSplineSet
EndChar

StartChar: upsilondieresistonos.alt
Encoding: 1114112 -1 156
Width: 668
Flags: MW
HStem: -195 48 409 36 484 129
VStem: 248 109
LayerCount: 2
Fore
SplineSet
421 479 m 0
 381 479 350 511 350 546 c 0
 350 578 376 613 421 613 c 0
 461 613 491 581 491 546 c 0
 491 514 465 479 421 479 c 0
245 479 m 0
 206 479 175 511 175 546 c 0
 175 578 201 613 246 613 c 0
 286 613 316 581 316 546 c 0
 316 514 290 479 245 479 c 0
567 391 m 0
 557 382 551 365 546 353 c 2
 389 16 l 2
 382 1 382 -1 382 -19 c 2
 382 -141 l 1
 455 -141 l 1
 455 -195 l 1
 407 -193 361 -192 317 -192 c 0
 292 -192 266 -192 187 -195 c 1
 187 -141 l 1
 260 -141 l 1
 260 -20 l 2
 260 -4 260 1 253 15 c 2
 245 33 l 1
 82 384 l 2
 74 402 67 403 49 404 c 0
 42 405 33 405 21 405 c 2
 10 405 l 1
 10 446 l 1
 52 444 91 443 131 443 c 0
 175 443 219 444 266 446 c 1
 266 405 l 1
 258 405 l 2
 223 405 211 405 211 396 c 0
 211 391 213 385 218 375 c 2
 356 79 l 1
 487 361 l 2
 490 367 496 379 496 386 c 0
 496 402 467 404 445 405 c 1
 445 446 l 1
 480 444 513 443 545 443 c 0
 572 443 601 444 632 446 c 1
 632 405 l 1
 594 404 577 399 567 391 c 0
EndSplineSet
EndChar

StartChar: uni0394
Encoding: 916 916 157
Width: 795
Flags: MW
HStem: 0 47 625 47
LayerCount: 2
Fore
SplineSet
16 0 m 1
 16 53 l 1
 59 53 74 55 83 67 c 0
 195 213 251 326 350 472 c 1
 331 508 322 525 312 540 c 0
 264 614 228 619 155 619 c 1
 155 672 l 1
 352 670 l 2
 386 670 403 660 418 628 c 2
 682 64 l 2
 685 57 689 55 698 53 c 0
 709 52 727 53 739 53 c 2
 778 53 l 1
 778 0 l 1
 16 0 l 1
397 379 m 1
 312 263 219 99 214 73 c 1
 246 60 325 58 389 58 c 0
 442 58 507 66 541 73 c 1
 511 139 435 298 397 379 c 1
EndSplineSet
EndChar

StartChar: uni0375
Encoding: 885 885 158
Width: 206
Flags: W
LayerCount: 2
Fore
SplineSet
118 -190 m 0
 114 -198 104 -208 96 -213 c 0
 88 -216 85 -216 73 -216 c 0
 45 -216 20 -197 20 -166 c 0
 20 -154 24 -145 33 -132 c 0
 41 -121 55 -103 82 -70 c 2
 149 11 l 1
 161 2 182 -7 182 -24 c 1
 182 -24 119 -186 118 -190 c 0
EndSplineSet
EndChar

StartChar: upsilondieresis.alt
Encoding: 1114113 -1 159
Width: 668
Flags: MW
HStem: -195 48 409 36
VStem: 248 109
LayerCount: 2
Fore
SplineSet
421 479 m 0
 381 479 350 511 350 546 c 0
 350 578 376 613 421 613 c 0
 461 613 491 581 491 546 c 0
 491 514 465 479 421 479 c 0
245 479 m 0
 206 479 175 511 175 546 c 0
 175 578 201 613 246 613 c 0
 286 613 316 581 316 546 c 0
 316 514 290 479 245 479 c 0
567 391 m 0
 557 382 551 365 546 353 c 2
 389 16 l 2
 382 1 382 -1 382 -19 c 2
 382 -141 l 1
 455 -141 l 1
 455 -195 l 1
 407 -193 361 -192 317 -192 c 0
 292 -192 266 -192 187 -195 c 1
 187 -141 l 1
 260 -141 l 1
 260 -20 l 2
 260 -4 260 1 253 15 c 2
 245 33 l 1
 82 384 l 2
 74 402 67 403 49 404 c 0
 42 405 33 405 21 405 c 2
 10 405 l 1
 10 446 l 1
 52 444 91 443 131 443 c 0
 175 443 219 444 266 446 c 1
 266 405 l 1
 258 405 l 2
 223 405 211 405 211 396 c 0
 211 391 213 385 218 375 c 2
 356 79 l 1
 487 361 l 2
 490 367 496 379 496 386 c 0
 496 402 467 404 445 405 c 1
 445 446 l 1
 480 444 513 443 545 443 c 0
 572 443 601 444 632 446 c 1
 632 405 l 1
 594 404 577 399 567 391 c 0
EndSplineSet
EndChar

StartChar: upsilon.alt
Encoding: 1114114 -1 160
Width: 643
Flags: MW
HStem: -195 48 409 36
VStem: 248 109
LayerCount: 2
Fore
SplineSet
567 390 m 0
 557 381 551 364 546 352 c 2
 389 16 l 2
 382 1 382 -1 382 -20 c 2
 382 -142 l 1
 455 -142 l 1
 455 -195 l 1
 407 -193 361 -192 317 -192 c 0
 292 -192 266 -192 187 -195 c 1
 187 -142 l 1
 260 -142 l 1
 260 -21 l 2
 260 -5 260 1 253 15 c 2
 245 33 l 1
 82 383 l 2
 74 400 67 402 49 403 c 0
 42 403 33 403 21 403 c 2
 10 403 l 1
 10 445 l 1
 52 443 91 442 131 442 c 0
 175 442 219 443 266 445 c 1
 266 403 l 1
 258 403 l 2
 223 403 211 404 211 394 c 0
 211 390 213 384 218 374 c 2
 356 79 l 1
 487 360 l 2
 490 366 496 378 496 385 c 0
 496 401 467 402 445 404 c 1
 445 445 l 1
 480 443 513 442 545 442 c 0
 572 442 601 443 632 445 c 1
 632 403 l 1
 594 403 577 398 567 390 c 0
EndSplineSet
EndChar

StartChar: uni03BC
Encoding: 956 956 161
Width: 794
Flags: MW
HStem: -4 56 395 36
VStem: 180 69 470 98
LayerCount: 2
Fore
SplineSet
664 -4 m 0
 597 -4 551 38 524 82 c 1
 501 48 459 -8 384 -8 c 0
 307 -8 257 43 230 93 c 1
 221 52 178 -6 96 -6 c 0
 76 -6 53 -1 24 13 c 1
 24 48 l 1
 59 48 l 2
 187 48 188 162 188 263 c 0
 188 325 182 368 175 377 c 0
 166 387 123 389 109 390 c 1
 109 431 l 1
 180 428 230 427 274 429 c 1
 269 384 267 366 267 336 c 0
 267 163 292 83 389 83 c 0
 462 83 495 100 495 291 c 0
 495 335 489 391 483 428 c 1
 544 428 612 428 680 429 c 1
 683 387 l 1
 670 387 625 387 617 380 c 0
 612 375 605 340 605 289 c 0
 605 196 623 57 689 57 c 0
 704 57 708 58 749 86 c 1
 766 48 l 1
 737 19 712 -4 664 -4 c 0
EndSplineSet
EndChar

StartChar: ampersand.alt
Encoding: 1114115 -1 162
Width: 933
Flags: W
LayerCount: 2
Fore
SplineSet
870 347 m 1
 847 355 835 359 825 361 c 0
 816 363 809 364 796 364 c 0
 681 364 603 275 603 177 c 0
 603 91 662 58 702 58 c 0
 731 58 758 71 808 156 c 1
 853 128 873 105 880 64 c 1
 796 -6 713 -9 677 -9 c 0
 643 -9 611 -3 583 7 c 1
 541 -12 492 -22 430 -22 c 0
 229 -22 56 136 56 342 c 0
 56 545 228 704 430 705 c 0
 536 705 721 673 721 527 c 0
 721 496 710 470 692 449 c 1
 791 449 l 2
 796 449 820 449 833 487 c 1
 903 479 l 1
 870 347 l 1
442 633 m 0
 395 632 261 612 219 449 c 1
 497 449 l 2
 572 449 615 472 615 503 c 0
 615 556 568 633 442 633 c 0
630 378 m 1
 630 376 l 1
 624 377 l 1
 627 383 l 1
 532 325 479 277 479 161 c 0
 479 120 493 85 521 55 c 1
 495 48 471 44 443 44 c 0
 387 44 200 73 200 341 c 0
 200 350 200 358 202 370 c 1
 606 370 l 1
 639 370 l 1
 630 378 l 1
EndSplineSet
EndChar

StartChar: uni03A9
Encoding: 937 937 163
Width: 1060
Flags: W
LayerCount: 2
Fore
SplineSet
727 -22 m 0
 623 -22 564 21 530 61 c 1
 467 -15 370 -22 332 -22 c 0
 166 -22 55 149 55 341 c 0
 55 540 179 705 342 705 c 0
 350 705 382 700 382 672 c 0
 382 652 364 638 346 638 c 0
 302 638 207 590 207 345 c 0
 207 144 272 47 340 47 c 0
 345 47 459 60 463 94 c 1
 463 103 l 1
 463 480 l 2
 463 481 464 489 463 490 c 0
 463 491 460 491 456 492 c 0
 449 492 442 492 411 493 c 1
 411 565 l 1
 465 562 493 562 522 562 c 0
 546 562 589 561 648 566 c 1
 648 493 l 1
 644 493 603 493 595 490 c 0
 594 489 595 481 595 480 c 2
 595 103 l 2
 595 92 595 91 606 82 c 0
 639 57 683 47 719 47 c 0
 786 47 851 145 851 345 c 0
 851 592 757 638 713 638 c 0
 695 638 677 652 677 672 c 0
 677 700 709 705 717 705 c 0
 805 705 880 656 932 583 c 0
 983 511 1004 424 1004 341 c 0
 1004 150 892 -22 727 -22 c 0
EndSplineSet
EndChar

StartChar: upsilontonos.alt
Encoding: 1114116 -1 164
Width: 643
Flags: MW
HStem: -195 48 409 36
VStem: 248 109
LayerCount: 2
Fore
SplineSet
567 390 m 0
 557 381 551 364 546 352 c 2
 389 16 l 2
 382 1 382 -1 382 -20 c 2
 382 -142 l 1
 455 -142 l 1
 455 -195 l 1
 407 -193 361 -192 317 -192 c 0
 292 -192 266 -192 187 -195 c 1
 187 -142 l 1
 260 -142 l 1
 260 -21 l 2
 260 -5 260 1 253 15 c 2
 245 33 l 1
 82 383 l 2
 74 400 67 402 49 403 c 0
 42 403 33 403 21 403 c 2
 10 403 l 1
 10 445 l 1
 52 443 91 442 131 442 c 0
 175 442 219 443 266 445 c 1
 266 403 l 1
 258 403 l 2
 223 403 211 404 211 394 c 0
 211 390 213 384 218 374 c 2
 356 79 l 1
 487 360 l 2
 490 366 496 378 496 385 c 0
 496 401 467 402 445 404 c 1
 445 445 l 1
 480 443 513 442 545 442 c 0
 572 442 601 443 632 445 c 1
 632 403 l 1
 594 403 577 398 567 390 c 0
EndSplineSet
EndChar

StartChar: uni0374
Encoding: 884 884 165
Width: 206
Flags: W
LayerCount: 2
Fore
SplineSet
103 675 m 2
 104 677 l 2
 109 686 122 700 144 700 c 0
 172 700 199 681 199 649 c 0
 199 639 199 636 196 628 c 0
 173 596 70 480 64 480 c 0
 52 483 37 500 37 507 c 0
 38 515 92 654 103 675 c 2
EndSplineSet
EndChar

StartChar: xi.alt
Encoding: 1114117 -1 166
Width: 426
Flags: MW
HStem: -5 68 252 64 363 68
VStem: 23 47 229 96 333 47
LayerCount: 2
Fore
SplineSet
218 358 m 2
 186 358 160 358 139 356 c 0
 114 354 86 350 81 323 c 0
 79 313 79 302 77 288 c 1
 21 288 l 1
 34 431 l 1
 391 431 l 1
 391 358 l 1
 218 358 l 2
350 -74 m 1
 348 -60 349 -49 347 -40 c 0
 341 -14 312 -9 288 -7 c 0
 267 -6 242 -6 209 -6 c 2
 31 -6 l 1
 31 56 l 1
 146 100 240 166 240 221 c 0
 240 238 231 248 212 248 c 0
 182 248 148 208 134 184 c 1
 134 184 102 195 87 202 c 1
 89 221 93 242 93 242 c 1
 123 291 175 317 235 317 c 0
 283 317 348 290 348 241 c 0
 348 165 257 106 158 70 c 1
 158 67 l 1
 398 67 l 1
 406 -74 l 1
 350 -74 l 1
EndSplineSet
EndChar

StartChar: Xi.alt
Encoding: 1114118 -1 167
Width: 675
Flags: MW
HStem: -5 86 436 91 591 86
VStem: 46 47 146 52 412 102 550 47
LayerCount: 2
Fore
SplineSet
326 586 m 2
 260 586 151 584 134 577 c 0
 120 572 106 560 102 485 c 1
 45 485 l 1
 55 677 l 1
 611 677 l 1
 611 586 l 1
 326 586 l 2
580 -106 m 1
 576 -32 562 -20 548 -14 c 0
 531 -8 421 -6 355 -6 c 2
 50 -6 l 1
 50 84 l 1
 121 114 192 156 255 194 c 0
 310 228 434 333 434 377 c 0
 434 397 411 432 358 432 c 0
 286 432 231 374 212 298 c 1
 195 303 165 309 152 314 c 1
 152 324 154 356 154 367 c 0
 182 443 243 528 365 528 c 0
 463 528 548 479 548 396 c 0
 548 270 324 130 231 86 c 1
 626 86 l 1
 636 -106 l 1
 580 -106 l 1
EndSplineSet
EndChar

